<svg xmlns="http://www.w3.org/2000/svg" xmlns:xlink="http://www.w3.org/1999/xlink" width="233" height="44.5" viewBox="0 0 233 44.5">
  <defs>
    <filter id="長方形_19" x="0" y="0" width="233" height="44.5" filterUnits="userSpaceOnUse">
      <feOffset dy="3" input="SourceAlpha"/>
      <feGaussianBlur stdDeviation="0.5" result="blur"/>
      <feFlood flood-color="#fff" flood-opacity="0.729"/>
      <feComposite operator="in" in2="blur"/>
      <feComposite in="SourceGraphic"/>
    </filter>
  </defs>
  <g id="グループ_26" data-name="グループ 26" transform="translate(-43.5 -308)">
    <g id="グループ_25" data-name="グループ 25">
      <g transform="matrix(1, 0, 0, 1, 43.5, 308)" filter="url(#長方形_19)">
        <rect id="長方形_19-2" data-name="長方形 19" width="230" height="40" rx="8" transform="translate(1.5)" fill="#273e8f"/>
      </g>
      <g id="長方形_20" data-name="長方形 20" transform="translate(55 315)" fill="none" stroke="#fff" stroke-width="1">
        <rect width="210" height="26" stroke="none"/>
        <rect x="0.5" y="0.5" width="209" height="25" fill="none"/>
      </g>
      <path id="パス_21" data-name="パス 21" d="M-49.515-9.51c.1,0,.18.015.21.015.06,0,.165.015.345.03a23.652,23.652,0,0,0,2.745.18,15.99,15.99,0,0,0,2.25-.12,2.714,2.714,0,0,1-.33.18c-.2.12-.24.15-.39.24-.375.21-.54.315-1.485.915l1.305,1.035a27.163,27.163,0,0,1,4-2.475l-.06-1.695a18.6,18.6,0,0,1-3.96.285,19.673,19.673,0,0,1-4.5-.375Zm1.11,3.39C-49.755-4.995-50.34-4-50.34-2.85a2.59,2.59,0,0,0,1.92,2.5A10.73,10.73,0,0,0-44.67.15,24.205,24.205,0,0,0-40.62-.2a6.3,6.3,0,0,1,.66-.06l-.165-2.055a15.447,15.447,0,0,1-4.71.645c-2.535,0-3.63-.42-3.63-1.395,0-.645.42-1.275,1.365-2.07ZM-38.1-6.735A8.675,8.675,0,0,0-39.66-8.85l-1.005.525a11.052,11.052,0,0,1,1.53,2.175Zm-4.41-.7A10.124,10.124,0,0,1-40.935-5.2l1.05-.555a9.721,9.721,0,0,0-1.575-2.2Zm14.19.735v.66h-1.515c-.675,0-1.035-.015-1.41-.045.03.435.045.765.045,1.38v2.265a6.474,6.474,0,0,1-.855-.075v1.35a3.862,3.862,0,0,1,.855-.075v.66a14.64,14.64,0,0,1-.075,1.845H-29.7a17.494,17.494,0,0,1-.06-1.845v-.66h4.47v.81c0,.285-.12.345-.615.345A8.8,8.8,0,0,1-27.15-.2,4.1,4.1,0,0,1-26.9,1.14c.57.03.915.03,1.35.03,1.35,0,1.68-.27,1.68-1.4v-1.02a5.213,5.213,0,0,1,.8.06V-2.52a4.753,4.753,0,0,1-.8.075v-2.4a12.084,12.084,0,0,1,.06-1.26,12.231,12.231,0,0,1-1.4.06h-1.725V-6.7h2.61A6.393,6.393,0,0,1-23.1-6.63V-7.965a5.847,5.847,0,0,1-1.2.075h-.975v-.7h.615a6.828,6.828,0,0,1,1.05.06v-1.2a6.293,6.293,0,0,1-1.02.06h-.645v-.66h.915a7.655,7.655,0,0,1,1.08.06V-11.55a5.231,5.231,0,0,1-1.1.075h-.9a4.865,4.865,0,0,1,.09-1.05H-26.82a3.254,3.254,0,0,1,.09,1.05h-1.725a3.55,3.55,0,0,1,.09-1.05H-30a3.55,3.55,0,0,1,.09,1.05h-.63a6.079,6.079,0,0,1-1.155-.075v1.275a7.834,7.834,0,0,1,1.11-.06h.675v.66h-.42a6.535,6.535,0,0,1-1.05-.06v1.2a6.7,6.7,0,0,1,1.05-.06h.42v.7h-.72a6.973,6.973,0,0,1-1.23-.075V-6.63A7.182,7.182,0,0,1-30.63-6.7Zm0,4.26h-1.44v-.72h1.44Zm1.41,0v-.72h1.62v.72ZM-28.32-4.2h-1.44v-.7h1.44Zm1.41,0v-.7h1.62v.7Zm-1.545-6.135h1.725v.66h-1.725Zm0,1.74h1.725v.7h-1.725Zm-4.74,6.06a9.5,9.5,0,0,1,1.035.045,9.681,9.681,0,0,1-.045-1.41v-6.84a13.092,13.092,0,0,1,.045-1.35,11.524,11.524,0,0,1-1.185.045h-1.77c-.555,0-.9-.015-1.245-.045a14.67,14.67,0,0,1,.06,1.5v6.51c0,.54-.015,1.155-.045,1.59a9.186,9.186,0,0,1,1.065-.045ZM-34.95-10.65h1.41V-9.3h-1.41Zm0,2.64h1.41v1.32h-1.41Zm0,2.625h1.41v1.47h-1.41Zm-.6,2.91A7.338,7.338,0,0,1-36.93.33a6.017,6.017,0,0,1,1.23.885,9.047,9.047,0,0,0,1.425-3.06Zm1.455.63A13.834,13.834,0,0,0-32.85.885,4.876,4.876,0,0,1-31.665.06a8.731,8.731,0,0,1-1.26-2.5Zm18.2-8.43a11.854,11.854,0,0,1-.5,3.03,11.1,11.1,0,0,1-2.565,4.44A11.849,11.849,0,0,1-21.975-.45a4.207,4.207,0,0,1,1.23,1.575,14.985,14.985,0,0,0,3.72-3.39A12.583,12.583,0,0,0-14.88-6.8a9.7,9.7,0,0,0,.765,2.13,11.423,11.423,0,0,0,1.32,2.22A15.115,15.115,0,0,0-9.15,1.08,6.366,6.366,0,0,1-7.875-.615a10.735,10.735,0,0,1-2.22-1.62,12.135,12.135,0,0,1-2.4-2.88,11.614,11.614,0,0,1-1.605-5.94A7.078,7.078,0,0,1-14.055-12a8.174,8.174,0,0,1-1.365.075h-2.385A9.133,9.133,0,0,1-19.215-12v1.8c.585-.045,1.035-.075,1.44-.075Zm13.77,2.73a.264.264,0,0,1,.09-.015.689.689,0,0,1,.15.015,2.233,2.233,0,0,1,.255.015c.075,0,.24.015.45.015.7.06,1.305.075,1.86.075.39,0,.75-.015,1.35-.03.06,2.085.075,2.82.12,3.195A3.565,3.565,0,0,0,.81-4.485c-1.815,0-3.09,1.02-3.09,2.475C-2.28-.48-1.08.45.885.45,2.34.45,3.39-.075,3.735-.96a2.624,2.624,0,0,0,.12-.84v-.21c.09.06.435.285.945.615a5.62,5.62,0,0,1,1.125.96l.72-1.815a2.854,2.854,0,0,1-.42-.255A11.959,11.959,0,0,0,3.87-3.87c-.15-2.52-.15-2.55-.15-3.39v-.33c.8-.09,1.575-.225,2.085-.33a2.592,2.592,0,0,1,.435-.075l-.06-1.7-.12.03c-.24.09-.24.09-.33.12A15.08,15.08,0,0,1,3.7-9.18v-.69a14.676,14.676,0,0,1,.105-2.2l-1.875.045a4.2,4.2,0,0,1,.045.72c0,.615.015,1.365.015,2.25-.525.03-.855.03-1.38.03A10.81,10.81,0,0,1-2.1-9.27Zm4.3,4.8v.4a1.259,1.259,0,0,1-.195.81,1.475,1.475,0,0,1-1.215.465c-.84,0-1.38-.375-1.38-.93,0-.615.6-.99,1.56-.99A3.14,3.14,0,0,1,2.175-2.745ZM-3.69.45a2.939,2.939,0,0,1-.03-.4,12.515,12.515,0,0,1,1.485-4.59L-3.48-5.1a2.858,2.858,0,0,1-.18.465c-.15.36-.15.36-.285.675-.075.24-.15.4-.18.51-.105.27-.105.27-.18.435H-4.32a2.553,2.553,0,0,0,.015-.315v-.24c0-.24,0-.24.015-.78a24.108,24.108,0,0,1,1.2-7.53l-2.025-.21v.06a8.052,8.052,0,0,1-.165,1.11c-.33,1.695-.33,1.695-.405,2.145A26.811,26.811,0,0,0-5.97-4.8,28.446,28.446,0,0,0-5.565-.03,5.474,5.474,0,0,1-5.49.555ZM10.695-9.525a4.5,4.5,0,0,1,.555.045,23.651,23.651,0,0,0,2.745.18,15.99,15.99,0,0,0,2.25-.12c-.69.39-1.425.84-2.2,1.335L15.345-7.05A27.577,27.577,0,0,1,19.35-9.54l-.06-1.68a18.6,18.6,0,0,1-3.96.285,19.673,19.673,0,0,1-4.5-.375Zm1.11,3.39C10.455-5.01,9.87-4.02,9.87-2.88A2.577,2.577,0,0,0,11.79-.375a10.73,10.73,0,0,0,3.75.5,25.665,25.665,0,0,0,4.05-.33,5.964,5.964,0,0,1,.66-.06l-.165-2.055a16,16,0,0,1-4.71.63c-2.535,0-3.63-.42-3.63-1.395,0-.645.42-1.275,1.365-2.055ZM24.03-8.43h.12c.12,0,.27,0,.48.015.795.06,1.47.09,2.265.1a33.963,33.963,0,0,1-1.26,3.33,10.085,10.085,0,0,1-.7,1.35L26.745-3a2.544,2.544,0,0,1,1.1-.87,7.584,7.584,0,0,1,3.225-.735c1.62,0,2.52.51,2.52,1.44,0,1.2-1.41,1.965-3.585,1.965a11.414,11.414,0,0,1-3.87-.72,8.537,8.537,0,0,1,.15,1.905A13.7,13.7,0,0,0,30.1.51c3.285,0,5.43-1.44,5.43-3.66,0-1.905-1.575-3.045-4.215-3.045a6.977,6.977,0,0,0-3.78.975v-.03A19.946,19.946,0,0,0,28.725-8.3c1.875-.045,3.195-.15,5.37-.39.39-.045.525-.06.87-.075l-.09-1.815a10.233,10.233,0,0,1-1.92.345c-.99.12-2.685.24-3.825.27.09-.285.09-.285.36-1.41a8.382,8.382,0,0,1,.24-.87l-2.01-.165A12.869,12.869,0,0,1,27.3-9.93a13.8,13.8,0,0,1-3.24-.255Zm17.775-2.3a27.15,27.15,0,0,0,5.85,1.875l.615-1.725a22.5,22.5,0,0,1-5.6-1.665ZM40.6-9.4a6.121,6.121,0,0,1-.09.87c-.27,1.77-.51,3.435-.63,4.365-.075.57-.075.63-.12.9l1.89.06a3.265,3.265,0,0,1,.675-.645,6.827,6.827,0,0,1,3.735-1.1c1.59,0,2.535.6,2.535,1.605,0,1.275-1.47,2.16-3.585,2.16a12.109,12.109,0,0,1-4.035-.75A6.657,6.657,0,0,1,41.205,0,13.793,13.793,0,0,0,45.03.525,6.48,6.48,0,0,0,48.99-.5,3.652,3.652,0,0,0,50.535-3.39c0-1.92-1.68-3.18-4.23-3.18A7.109,7.109,0,0,0,41.76-5.145l-.03-.03c.045-.225.045-.225.075-.435A31.74,31.74,0,0,1,42.48-9.3Z" transform="translate(160 334)" fill="#fff"/>
      <ellipse id="楕円形_4" data-name="楕円形 4" cx="9" cy="9.5" rx="9" ry="9.5" transform="translate(218 319)" fill="#fff"/>
      <path id="多角形_2" data-name="多角形 2" d="M5.5,0,11,10H0Z" transform="translate(234 323) rotate(90)" fill="#253b91"/>
    </g>
  </g>
</svg>
