<svg xmlns="http://www.w3.org/2000/svg" xmlns:xlink="http://www.w3.org/1999/xlink" width="400.676" height="90.362" viewBox="0 0 400.676 90.362">
  <defs>
    <filter id="長方形_50" x="2.942" y="4.483" width="397.38" height="85.879" filterUnits="userSpaceOnUse">
      <feOffset dy="3" input="SourceAlpha"/>
      <feGaussianBlur stdDeviation="3" result="blur"/>
      <feFlood flood-opacity="0.569"/>
      <feComposite operator="in" in2="blur"/>
      <feComposite in="SourceGraphic"/>
    </filter>
    <filter id="長方形_49" x="0" y="0" width="400.676" height="79.882" filterUnits="userSpaceOnUse">
      <feOffset dy="3" input="SourceAlpha"/>
      <feGaussianBlur stdDeviation="3" result="blur-2"/>
      <feFlood flood-color="#2b6f00" flood-opacity="0.518"/>
      <feComposite operator="in" in2="blur-2"/>
      <feComposite in="SourceGraphic"/>
    </filter>
  </defs>
  <g id="グループ_27" data-name="グループ 27" transform="translate(41.199 -490.071)">
    <g transform="matrix(1, 0, 0, 1, -41.2, 490.07)" filter="url(#長方形_50)">
      <rect id="長方形_50-2" data-name="長方形 50" width="381" height="15" transform="translate(11.94 63.51) rotate(-8)" fill="#fff" opacity="0.85"/>
    </g>
    <g transform="matrix(1, 0, 0, 1, -41.2, 490.07)" filter="url(#長方形_49)">
      <rect id="長方形_49-2" data-name="長方形 49" width="381" height="42" transform="translate(11.2 6) rotate(3)" fill="#001a34" opacity="0.85"/>
    </g>
    <path id="パス_22" data-name="パス 22" d="M-118.463-10.368a3.758,3.758,0,0,1,.528.048,31.3,31.3,0,0,0,3.52.208A12.647,12.647,0,0,0-112-10.32c-.16.1-.192.1-.3.16-.192.1-.224.112-.4.208a24.791,24.791,0,0,0-2.128,1.328l.816.656a22.788,22.788,0,0,1,4.032-2.432l-.08-1.056a17.5,17.5,0,0,1-4.048.336,18.292,18.292,0,0,1-4.256-.384Zm.96,4.1a4.2,4.2,0,0,0-1.84,3.088,2.549,2.549,0,0,0,1.824,2.416,11.288,11.288,0,0,0,3.68.5,26.1,26.1,0,0,0,4.32-.368,4.475,4.475,0,0,1,.544-.08l-.144-1.312a15.178,15.178,0,0,1-4.8.608,10.189,10.189,0,0,1-2.928-.32c-.9-.3-1.36-.832-1.36-1.568,0-.752.48-1.488,1.52-2.352Zm13.04,4.288a3.391,3.391,0,0,1,.416-.512c.272-.3.5-.56.672-.752.544-.608.544-.608.784-.88a1.777,1.777,0,0,0,.288-.384h.032c-.048.72-.048.72-.048,2.592a13.68,13.68,0,0,1-.112,2.64h1.248a24.806,24.806,0,0,1-.048-2.656V-5.392a25.945,25.945,0,0,1,3.088-2.72A4.555,4.555,0,0,1-95.727-9.2a.811.811,0,0,1,.88.864,11.993,11.993,0,0,1-.4,2.4,15.543,15.543,0,0,0-.608,3.728A1.992,1.992,0,0,0-95.1-.384a1.972,1.972,0,0,0,1.12.336A2.754,2.754,0,0,0-91.775-1.2a7.9,7.9,0,0,0,.992-1.584,5.266,5.266,0,0,1-.736-1.088,6.584,6.584,0,0,1-.912,1.84,1.929,1.929,0,0,1-1.36.88c-.624,0-.96-.4-.96-1.136a17.6,17.6,0,0,1,.688-3.792,10.687,10.687,0,0,0,.368-2.336,1.739,1.739,0,0,0-1.872-1.872,6.431,6.431,0,0,0-3.616,1.76,11.421,11.421,0,0,0-2.032,1.872l-.032-.016c0-.1.016-.128.016-.256a.816.816,0,0,0,.016-.144c.016-.752.016-.752.032-1.072a2.727,2.727,0,0,0,.016-.4,5.514,5.514,0,0,1,.816-.992l-.416-.5a1.045,1.045,0,0,1-.32.08,18.623,18.623,0,0,1,.192-2.848l-1.264-.016a6.513,6.513,0,0,1,.048.8c0,.208-.016.928-.064,2.144-1.344.08-2.048.128-2.1.128a3.237,3.237,0,0,1-.5-.032l.064,1.1a16.3,16.3,0,0,1,2.512-.224c-.048,1.408-.08,2.416-.1,3.056a24.569,24.569,0,0,1-2.816,2.7ZM-85.135-11.6a17.82,17.82,0,0,0,2.448,1.008,24.678,24.678,0,0,0,3.12.912l.448-1.12a19.29,19.29,0,0,1-5.424-1.776Zm-1.328,1.728a5.382,5.382,0,0,1-.112.848c-.224,1.344-.512,3.2-.672,4.416-.064.512-.08.656-.128.944l1.248.032a2.782,2.782,0,0,1,.64-.656,7.752,7.752,0,0,1,4.48-1.392c1.952,0,3.1.768,3.1,2.08,0,1.632-1.68,2.688-4.32,2.688a11.364,11.364,0,0,1-4.08-.8,3.7,3.7,0,0,1,.112.992,2.523,2.523,0,0,1-.016.3c.976.24.976.24,1.28.32a13.293,13.293,0,0,0,2.8.288A6.641,6.641,0,0,0-78.143-.864,3.421,3.421,0,0,0-76.7-3.616c0-1.872-1.68-3.088-4.288-3.088a7.92,7.92,0,0,0-4.624,1.376,4.481,4.481,0,0,0-.5.48l-.032-.016a1.928,1.928,0,0,0,.064-.368c.048-.368.08-.48.464-2.8a13.391,13.391,0,0,1,.368-1.76Zm21.1-.736a4.6,4.6,0,0,1,1.856.4,4.218,4.218,0,0,1,2.544,4.016,4.83,4.83,0,0,1-2.832,4.48,9.591,9.591,0,0,1-2.672.752A2.542,2.542,0,0,1-65.9.112a12.378,12.378,0,0,0,2.432-.736,5.826,5.826,0,0,0,3.664-5.52,5.356,5.356,0,0,0-1.552-3.9,6.194,6.194,0,0,0-4.4-1.584A6.683,6.683,0,0,0-70.927-9.5a6.656,6.656,0,0,0-1.68,4.416c0,2.24,1.136,3.9,2.656,3.9,1.152,0,2.1-.96,3.024-3.072A23.984,23.984,0,0,0-65.359-10.608Zm-1.152.016a21.976,21.976,0,0,1-1.456,5.92c-.688,1.568-1.328,2.32-2,2.32-.864,0-1.536-1.184-1.536-2.72A5.533,5.533,0,0,1-68.895-9.84,5.053,5.053,0,0,1-66.511-10.592Zm13.168-1.04a1.768,1.768,0,0,1,.016.256,12.69,12.69,0,0,1-.16,1.5A18.529,18.529,0,0,1-55.135-4.32a10.285,10.285,0,0,1-2.32,3.168,3.5,3.5,0,0,1,1.024.832c2.256-2.352,3.552-5.424,4.224-9.984A5.809,5.809,0,0,1-52-11.392Zm4.592.24a6.955,6.955,0,0,1,.208,1.056c.624,4.1,2.224,7.792,4.352,10.048a3.46,3.46,0,0,1,.992-.9,14.121,14.121,0,0,1-3.632-6.608,19.335,19.335,0,0,1-.736-3.84Zm4.3-1.472a1.82,1.82,0,0,0-1.824,1.808,1.82,1.82,0,0,0,1.824,1.808,1.816,1.816,0,0,0,1.808-1.808A1.8,1.8,0,0,0-44.447-12.864Zm0,.672a1.14,1.14,0,0,1,1.136,1.136A1.14,1.14,0,0,1-44.447-9.92,1.144,1.144,0,0,1-45.6-11.056,1.144,1.144,0,0,1-44.447-12.192ZM-38.3-6.336a6.02,6.02,0,0,1-.048-1.328v-2.784h8.544A12.647,12.647,0,0,1-31.471-4.7a9.725,9.725,0,0,1-5.44,3.9A3.214,3.214,0,0,1-36.143.272a12.187,12.187,0,0,0,4.576-2.928c1.728-1.792,2.528-3.792,3.008-7.456a1.96,1.96,0,0,1,.24-.9l-.656-.624a2.826,2.826,0,0,1-1.136.128h-8.272c-.384,0-.88-.032-1.232-.064.032.432.032.576.048,1.2v2.736a8.66,8.66,0,0,1-.064,1.3Zm13.472.848a17.479,17.479,0,0,1,1.984-.064h9.28a18.3,18.3,0,0,1,1.952.064v-1.3a12.619,12.619,0,0,1-1.936.08h-9.3a11.318,11.318,0,0,1-1.984-.1ZM-7.119-12.48a8.909,8.909,0,0,1-.224,1.28,26.469,26.469,0,0,0-.72,6.336A22.932,22.932,0,0,0-7.647-.336c.048.3.064.384.1.64L-6.4.208v-.24a13.947,13.947,0,0,1,1.3-4.4L-5.871-4.8a14.865,14.865,0,0,0-1.04,3.12c-.064-.848-.1-1.792-.1-3.04a23.653,23.653,0,0,1,.48-5.008,22.735,22.735,0,0,1,.672-2.56Zm3.3,3.024a21.311,21.311,0,0,0,2.56.16A27.01,27.01,0,0,0,2.177-9.5q1.056-.144,1.1-.144L3.2-10.784a17.169,17.169,0,0,1-4.288.432,10.867,10.867,0,0,1-2.72-.24Zm1.168,3.12A4.42,4.42,0,0,0-4.047-3.36a2.262,2.262,0,0,0,.48,1.472C-2.879-1.056-1.727-.672.1-.672a16.507,16.507,0,0,0,3.28-.32c.32-.048.352-.064.56-.08L3.777-2.3a10.53,10.53,0,0,1-3.68.56c-2.064,0-3.072-.576-3.072-1.76a3.717,3.717,0,0,1,1.2-2.352Zm21.968,2.32V-.288c0,.256-.128.352-.512.352a8.832,8.832,0,0,1-1.76-.208A4.292,4.292,0,0,1,17.3.992c.864.048,1.04.064,1.264.064a3.111,3.111,0,0,0,1.3-.176c.288-.16.432-.5.432-1.04V-10.944a12.688,12.688,0,0,1,.064-1.552,12.431,12.431,0,0,1-1.52.064H16.625a12.9,12.9,0,0,1-1.536-.064,16.177,16.177,0,0,1,.064,1.888,72.005,72.005,0,0,1-.272,7.424A6.206,6.206,0,0,1,13.3.432a2.546,2.546,0,0,1,.784.736,8.582,8.582,0,0,0,1.872-5.184Zm0-3.824v2.928H16c.064-1.024.064-1.36.1-2.928Zm0-.9h-3.2v-2.8h3.2ZM8.225-11.3h-.1a6.724,6.724,0,0,1-1.376-.1v1.04a7.258,7.258,0,0,1,1.376-.08h.1V-3.6H7.777A6.531,6.531,0,0,1,6.5-3.68v1.024a6.717,6.717,0,0,1,1.3-.08h5.056c.624,0,1.088.016,1.456.048V-3.68a7.873,7.873,0,0,1-1.264.08v-6.832a8.878,8.878,0,0,1,1.328.064v-1.024a6.825,6.825,0,0,1-1.328.1v-.288a9.616,9.616,0,0,1,.1-1.536h-1.1a9.23,9.23,0,0,1,.08,1.52v.3H9.169v-.288a10.33,10.33,0,0,1,.08-1.536H8.129a10.1,10.1,0,0,1,.1,1.52Zm.944,7.7V-5.456h2.944V-3.6Zm0-2.672v-1.68h2.944v1.68Zm0-2.5v-1.664h2.944v1.664ZM9.041-2.176a6.372,6.372,0,0,1-2.4,2.5,2.236,2.236,0,0,1,.736.768,9.087,9.087,0,0,0,2.5-2.768Zm2.112.48A8.106,8.106,0,0,0,12.705.144a3.305,3.305,0,0,1,.736-.688,5.909,5.909,0,0,1-1.568-1.648Zm19.984-8.848v2.112H28.449a9.755,9.755,0,0,1-1.536-.1v1.072a10.187,10.187,0,0,1,1.536-.1h5.024v1.888H28.337a9.981,9.981,0,0,1-1.552-.1v1.088a10.806,10.806,0,0,1,1.568-.1h5.12v4.4c0,.352-.1.384-.96.384a16.02,16.02,0,0,1-1.7-.192A3.869,3.869,0,0,1,31.073.912c.56.032,1.088.064,1.472.064a5.029,5.029,0,0,0,1.424-.16c.352-.128.528-.5.528-1.056V-4.768h.656a10.976,10.976,0,0,1,1.6.1V-5.76a10.676,10.676,0,0,1-1.6.1H34.5V-7.552h.656a11.13,11.13,0,0,1,1.6.1V-8.528a11.064,11.064,0,0,1-1.616.1H32.145v-2.112h2.4a10.393,10.393,0,0,1,1.5.08V-11.52a9.531,9.531,0,0,1-1.52.1H32.145v-.64a8.043,8.043,0,0,1,.08-1.3H31.041a8.363,8.363,0,0,1,.1,1.3v.64H29.009a9.175,9.175,0,0,1-1.5-.1v1.056a10.294,10.294,0,0,1,1.488-.08Zm-5.184-2.9A9.363,9.363,0,0,1,22.5-10.112a3.212,3.212,0,0,1,.64.816,14.624,14.624,0,0,0,3.088-2.784c.512-.624.512-.624.624-.752Zm5.36,11.9A20.324,20.324,0,0,0,28.8-4.224l-.768.592A12.792,12.792,0,0,1,30.465-.864ZM24.433-.7a17.421,17.421,0,0,1-.1,1.872h1.184A13.8,13.8,0,0,1,25.441-.7V-7.3a12.133,12.133,0,0,0,1.008-1.44c.256-.4.32-.48.448-.656l-.944-.56a11.03,11.03,0,0,1-3.632,4.368,3.228,3.228,0,0,1,.592.9A7.506,7.506,0,0,0,24.481-6.32c-.048.72-.048,1.184-.048,1.84ZM39.3-9.328a53.265,53.265,0,0,1,5.52-.528,32.746,32.746,0,0,0,3.52-.352,10.473,10.473,0,0,0-1.52.848,6.088,6.088,0,0,0-2.992,4.912A3.874,3.874,0,0,0,45.6-1.184,8.071,8.071,0,0,0,49.057.048c.288.048.32.064.5.1l.208-1.3H49.6a8.2,8.2,0,0,1-2.4-.512,3.137,3.137,0,0,1-2.24-2.96,4.89,4.89,0,0,1,1.968-3.7A7.87,7.87,0,0,1,50-9.92a6.711,6.711,0,0,1,1.792-.224l-.1-1.184a10.806,10.806,0,0,1-1.9.176l-.912.032c-.528.016-.736.032-2.7.144l-2.512.16c-1.968.112-2.064.128-2.96.192-.5.032-.688.048-.912.048-.112,0-.272,0-.576-.016Zm9.824,1.536a11.252,11.252,0,0,1,1.632,2.544l.816-.48a12.147,12.147,0,0,0-1.648-2.48Zm1.824-.864a12.662,12.662,0,0,1,1.632,2.512l.8-.448a12.966,12.966,0,0,0-1.648-2.5Zm5.312-.656a8.731,8.731,0,0,1,.992-.048,34.039,34.039,0,0,0,4.32-.288c.4.864.5,1.04.912,1.824a31.874,31.874,0,0,1-5.04.4,12.435,12.435,0,0,1-1.28-.048l.032,1.056c.288-.032.352-.032,1.12-.064a33.334,33.334,0,0,0,5.616-.464A14.665,14.665,0,0,0,64.641-4.48a9.618,9.618,0,0,0-3.232-.464c-3.04,0-4.88,1.04-4.88,2.768a2.235,2.235,0,0,0,1.2,1.984,6.456,6.456,0,0,0,3.3.672,13.936,13.936,0,0,0,4.1-.592,9.317,9.317,0,0,1,.96-.272l-.224-1.248A10.786,10.786,0,0,1,61.121-.56c-2.192,0-3.408-.576-3.408-1.632,0-1.1,1.488-1.824,3.792-1.824a16.176,16.176,0,0,1,2.1.144,4.338,4.338,0,0,1,1.76.608l.944-.672A18.754,18.754,0,0,1,63.953-7.12c.592-.112,1.392-.288,2.512-.576.528-.144.592-.144.864-.208L67.2-8.976a16.276,16.276,0,0,1-3.664.992c-.24-.432-.672-1.28-.912-1.808.9-.144,2.608-.512,4.032-.9l-.1-1.04a20.241,20.241,0,0,1-4.272,1.056,13.325,13.325,0,0,1-.848-2.256l-1.2.208a20.719,20.719,0,0,1,.96,2.192,31.613,31.613,0,0,1-3.792.224c-.544,0-.816-.016-1.2-.048ZM83.777-1.28a5.469,5.469,0,0,1-.544-.368,14,14,0,0,0-4.464-2.336c-.064-1.552-.064-1.552-.1-2.448,1.184-.08,2.448-.208,3.552-.384.56-.08.72-.1.928-.112l-.064-1.1a19.312,19.312,0,0,1-4.432.656c-.016-.848-.016-.848-.032-2.16a33.238,33.238,0,0,0,3.712-.384c.832-.112.832-.112,1.1-.128l-.08-1.088a22.555,22.555,0,0,1-4.736.656,17.856,17.856,0,0,1,.112-2.256H77.505a12.528,12.528,0,0,1,.08,2.3c-.528,0-1.072.016-1.392.016a19.877,19.877,0,0,1-4.1-.32l-.016,1.088a1.307,1.307,0,0,1,.224-.016,1.942,1.942,0,0,1,.288.016c1.44.112,2.736.16,3.9.16.368,0,.624,0,1.088-.016l.032,2.192c-.448.016-1.008.016-1.424.016a19.637,19.637,0,0,1-3.664-.256L72.513-6.5h.128c.1,0,.224,0,.4.016.992.08,1.744.112,2.7.112.512,0,1.312-.016,1.888-.032.016.416.016.72.032.928.016.464.016.8.032.944a1.275,1.275,0,0,0,.016.176c0,.144,0,.144.016.192a7.116,7.116,0,0,0-1.44-.128,6.97,6.97,0,0,0-1.664.16c-1.408.32-2.24,1.152-2.24,2.208a2.092,2.092,0,0,0,.864,1.68,4.168,4.168,0,0,0,2.48.64,3.221,3.221,0,0,0,2.7-1.008,2.778,2.778,0,0,0,.4-1.744,4.6,4.6,0,0,0-.032-.576c.432.176.8.336,1.072.48A12.875,12.875,0,0,1,83.137-.16Zm-6.032-1.3a2.1,2.1,0,0,1-.32,1.44,2.312,2.312,0,0,1-1.76.528c-1.392,0-2.192-.48-2.192-1.328S74.513-3.36,76.1-3.36a5.873,5.873,0,0,1,1.632.176Zm16.88-8.08c-1.088.032-2.336.064-3.872.128-2.576.1-2.576.1-3.04.1-.24,0-.352,0-.64-.016l.048,1.168c1.072-.176,4.3-.336,7.52-.4v.832c0,.192.016.352.016.416,0,.592,0,.656.016.88a2.457,2.457,0,0,0-1.856-.72,2.662,2.662,0,0,0-2.832,2.64A2.48,2.48,0,0,0,92.609-3.1a2.5,2.5,0,0,0,2.016-.864,2.241,2.241,0,0,0,.432-.784,4.144,4.144,0,0,1-1.792,3.376,8.2,8.2,0,0,1-2.592,1.2,3.513,3.513,0,0,1,.7,1.008,10.177,10.177,0,0,0,2.528-1.3A5.15,5.15,0,0,0,96.049-4.64a4.584,4.584,0,0,0-.384-1.888V-9.7c1.3-.032,1.472-.032,1.712-.032a28.437,28.437,0,0,1,3.056.08v-1.136c-.528.064-1.76.1-4.784.112v-.176a13.246,13.246,0,0,1,.08-2h-1.2a5.391,5.391,0,0,1,.064.928Zm-.048,4.672A1.793,1.793,0,0,1,92.705-4.1,1.546,1.546,0,0,1,91.057-5.68a1.693,1.693,0,0,1,1.776-1.68,2.047,2.047,0,0,1,1.072.256A1.158,1.158,0,0,1,94.577-5.984Zm9.052-5.493h1.586V-7.7l-.383,4.969h-.8L103.629-7.7Zm0,9.852h1.555V0h-1.555Zm11.186-1.367c-.032-.4-.048-.688-.048-.976,0-.064,0-.064.016-.736l.128-5.7c.016-.672.048-1.152.1-1.76h-1.584c.064.608.08,1.088.1,1.76l.144,5.7v.576c0,.528,0,.64-.032,1.136ZM115.007,0V-1.5h-1.552V0Z" transform="matrix(0.999, 0.052, -0.052, 0.999, 171.105, 532.006)" fill="#fff"/>
  </g>
</svg>
