<svg xmlns="http://www.w3.org/2000/svg" width="305.727" height="395.632" viewBox="0 0 305.727 395.632">
  <g id="f0084_0" transform="translate(308.521 -3.993) rotate(90)" opacity="0.2">
    <path id="パス_7" data-name="パス 7" d="M15.236,391.529c.949,1.385,0,4.875-.4,5.983,0,0,2.1-3.379,1.149-6.2a2,2,0,0,0-3.647-.554c-.649,1.052-.25,2.382.6,2.6a.6.6,0,0,0,.649-.886c-.25-.388-.5-.166-.849-.111C12.339,390.754,14.287,390.089,15.236,391.529ZM7.993,411.748c3,2.16,5.645,1.219,7.992,3.324a13.361,13.361,0,0,1,1.2,1.163,6.352,6.352,0,0,0-6.194-.609c-2.248.831-2.947.111-2.947.111s2.4,2.437,5.395,1.773a33.193,33.193,0,0,1,4.246-.665c.7.775,1.149,1.385,1.149,1.385-.2-1.329-2.8-6.426-5.245-8.2-3.2-2.327-8.192-1.219-8.991-3.878A8.75,8.75,0,0,0,7.993,411.748Zm10.54,25.038c-1.748,2.881-3.7,7.589-2.7,10.857,1.049,3.49,3.247,4.044,3.946,3.767a1.025,1.025,0,0,0,.35-1.606c-.4-.388-.849.388-.6.222.15-.111.7.443.4.665-1,.942-2.6-.443-3.547-2.825-1.449-4.376,2.048-9.971,4-12.408,2-2.437,2.348-.831,2.947-.166s1.4-.609,1-1.717C23.278,430.693,20.131,434.183,18.533,436.786Zm-11.939,7.09c.949-1.44,2.5-.886,3.6,1.329a1.494,1.494,0,0,0-.849.332,1.9,1.9,0,0,0-.849,1.773,2.371,2.371,0,0,1,1.149-.554,2.1,2.1,0,0,1,1.648,1.108c.25.609.549,1.274.9,1.939a2.264,2.264,0,0,0-.849-.055c-.8.166-.7.5-.7.5a1.6,1.6,0,0,1,1.049.332,24.9,24.9,0,0,0,3.1,2.659,5.718,5.718,0,0,0,2.1,1.163c3.746,1.163,4.4.388,4.4.388a8.268,8.268,0,0,1-7.243-4.487c-1.648-3.157-1.6-9.916-6.494-10.359-4.346-.332-4.845,6.813-.7,6.7A2.136,2.136,0,0,1,6.594,443.877Zm3.1-42.376c.05-.166-.749-.776-.849-1.773a2.657,2.657,0,0,1,.749-2.216,1.776,1.776,0,0,1,2.4-.332,3.168,3.168,0,0,1,1.049,2.437,18.644,18.644,0,0,1-.35,3.545c-.2,2.659,1.2,4.819,2.1,6.26.949,1.44,1.6,2.382,1.549,2.382a18.5,18.5,0,0,0-1.349-2.548c-.849-1.5-2-3.656-1.648-6.038a16.821,16.821,0,0,0,.549-3.6,4.181,4.181,0,0,0-1.3-3.324,2.628,2.628,0,0,0-2.6-.5,3.23,3.23,0,0,0-1.2.72,3.407,3.407,0,0,0-.8,3.545C8.492,401.445,9.691,401.667,9.691,401.5Zm10.64,18.28a17.335,17.335,0,0,0,.35-2.881c.2-3.047,1.648-4.819,2.148-7.09a7.772,7.772,0,0,0-.849-4.708c.2.665-.3,3.268-2.2,6.37C17.634,414.961,19.932,419.282,20.331,419.78ZM16.285,436.4a3.864,3.864,0,0,0-.25-2.936,1.464,1.464,0,0,0-1.4-.831,1.36,1.36,0,0,0-1,.942,1.446,1.446,0,0,0,.3,1.329.753.753,0,0,0,.9.277c.25-.222.15-.388.1-.443-.15.055-.3.166-.5-.277a.639.639,0,0,1,.35-.886c.05,0,.25-.111.6.388a3.151,3.151,0,0,1,.25,2.271c-.45,1.994-1.4,4.6-1.848,7.257a11.235,11.235,0,0,0,1.1,7.146,6.076,6.076,0,0,0,2.048,2.327,6.061,6.061,0,0,1-1.9-2.437,11.133,11.133,0,0,1-.8-6.924C14.736,440.941,15.736,438.559,16.285,436.4ZM9.691,392.3c.15-.222-.2-.942-.35-1.883a7.426,7.426,0,0,1-.05-1.053,1.139,1.139,0,0,0,1.7.388c-1-.222-1.3-1.717-1-2.6a2.981,2.981,0,0,1,1-.886,3.379,3.379,0,0,1,3.547,0,6.1,6.1,0,0,1,2.3,4.93,15.764,15.764,0,0,1-1.6,6.592,12.868,12.868,0,0,0-1.349,7.035c.25,2.327,1.5,4.1,2.248,5.65a55.1,55.1,0,0,1,2.348,5.318,27.825,27.825,0,0,0-2.048-5.484c-.7-1.606-1.8-3.324-2-5.539a12.471,12.471,0,0,1,1.549-6.536,16.359,16.359,0,0,0,1.948-7.035,7.492,7.492,0,0,0-2.7-6.149A4.905,4.905,0,0,0,8.392,386.6a4.821,4.821,0,0,0-.2,4.21C8.742,391.973,9.491,392.416,9.691,392.3Zm5.545,11.8c-.1,3.379,2.9,9.8,2.947,9.694a55.114,55.114,0,0,1-2.148-7.7c-.25-2.216-.35-3.324.6-5.484.849-1.939,2.747-2.881,3.4-2.659s.3,1.108-.4,1.5a1.45,1.45,0,0,0,1.449-.554,1.853,1.853,0,0,1-1.7,2.16c2.348,1.5,3.8-1.606,2.647-3.213-1.1-1.606-3.247-1.108-4.446,0C16.435,398.9,15.336,400.725,15.236,404.1Zm8.042,44.315a1.1,1.1,0,0,0-.549,1.44.572.572,0,0,0,.849.388c.2-.111.25-.277.2-.277,0-.055-.45.332-.7-.111-.3-.554.45-1.44,1.2-.609a2.34,2.34,0,0,1,0,3.213,4.346,4.346,0,0,1-4.046.942,8.475,8.475,0,0,1-4.945-8.364c.45-3.49,2.148-6.592,2.9-8.974.749-2.105,1.8-5.373.949-8.752a15.649,15.649,0,0,1,.1-2.216c.25-1.773,1.4-3.49,2.348-3.379s.8,1.5.8,1.5a1.617,1.617,0,0,0,.649-.942c.549.443.2,1.994.2,1.994s1-.166,1-1.606a2.453,2.453,0,0,0-4.246-1.5c-1.2,1.163-1.449,3.157-1.449,4.6a8.869,8.869,0,0,0-2.9-3.988,5.35,5.35,0,0,0-5.2-.72,5.223,5.223,0,0,0-3.2,3.933,4.253,4.253,0,0,0,1.149,4.155c.849.886,2.448,1.052,3,.5,1.149-.388.849-1.385.8-1.385-.05-.055-.6-.886-1.249-.332-.6.5-.949.776-1.9-.277a2.924,2.924,0,0,1-.25-3.711,4.152,4.152,0,0,1,4.046-2.216c3.547.443,5.495,4.875,5.495,8.088a16.339,16.339,0,0,1-1,5.318,14.61,14.61,0,0,0,.6-5.539,9.353,9.353,0,0,0-2.947-5.706,2.773,2.773,0,0,0-2.2-.72,1.5,1.5,0,0,0-1.1.72c-.5.609-.25,1.939.549,2.05.849.111.849-.831.7-.776-.1.055-.3.277-.549.111a.721.721,0,0,1-.05-.886c0-.166.949-.942,2.3.111a8.629,8.629,0,0,1,2.9,5.207,12.876,12.876,0,0,1,.1,2.382,5.231,5.231,0,0,0-.35-1.883,2.419,2.419,0,0,0-1.1-1.385,1.324,1.324,0,0,0-1.549.277,1.551,1.551,0,0,0-.549,1.274,1.451,1.451,0,0,0,.2.72.761.761,0,0,0,1,.388c.3-.166.35-.443.3-.5s-.25.055-.4.055-.25-.111-.4-.277a.943.943,0,0,1,.15-1.219,1,1,0,0,1,1.1-.277,2.273,2.273,0,0,1,1,1.108,7.2,7.2,0,0,1,.3,3.878,34.612,34.612,0,0,1-1.3,4.155c0-.055.3-.609.649-1.5a52.093,52.093,0,0,0-2.348,6.869,9.83,9.83,0,0,0,.549,5.706,10.151,10.151,0,0,0,3.746,4.487,4.961,4.961,0,0,0,5.245-.111,3.3,3.3,0,0,0,1.549-2.16,3.2,3.2,0,0,0-.549-2.382A1.237,1.237,0,0,0,23.278,448.419Zm7.743,19.111a9.787,9.787,0,0,1-4.046-8.032s-.7.72.35,4.875a6.865,6.865,0,0,0,1.049,2.327,26.82,26.82,0,0,0,2.4,3.434,2.741,2.741,0,0,1,.3,1.163s.3.111.45-.776a3.073,3.073,0,0,0-.05-.942c.6.388,1.149.665,1.748,1a2.4,2.4,0,0,1,1,1.828,2.884,2.884,0,0,1-.5,1.274s.849.222,1.6-.942a1.9,1.9,0,0,0,.3-.942c2,1.219,2.5,2.88,1.2,3.933a1.674,1.674,0,0,1-2.448-.277c-.1,4.6,6.344,4.044,6.044-.776C39.963,469.3,33.868,469.413,31.021,467.53Zm15.136-2.216a2.886,2.886,0,0,0-2.647-.277c-1.9.609-4.1,1.717-6.444,2.327a8.32,8.32,0,0,1-6.244-.886,7.15,7.15,0,0,1-2.2-2.1,5.3,5.3,0,0,0,2.1,2.271,8.459,8.459,0,0,0,6.444,1.219c2.4-.5,4.746-1.551,6.544-2.05a2.235,2.235,0,0,1,2.048.277c.4.332.35.609.35.665-.1.332-.4.665-.8.388-.4-.222-.3-.388-.25-.554,0-.055-.2-.111-.4.111a.952.952,0,0,0,.25,1,1.133,1.133,0,0,0,1.2.332,1.54,1.54,0,0,0,.849-1.108A1.983,1.983,0,0,0,46.157,465.314Zm21.23,2.714c-1.648-2.77-6.194-5.595-7.393-5.872,0,0,.5.5,1.249,1.274a44.76,44.76,0,0,1-.6,4.708,8.273,8.273,0,0,0,1.6,5.983s-.649-.776.1-3.268a8.614,8.614,0,0,0-.549-6.869c.35.388.7.886,1.049,1.33,1.9,2.6,1.049,5.484,3,8.863a7.724,7.724,0,0,0,5.145,3.767C68.486,477.113,69.485,471.629,67.387,468.029Zm-10.04-7.146c1.8-2.327-.05-4.653-1.349-4.708a1.356,1.356,0,0,0-1.449,1.108s1.349-.388,1.8.222a1.455,1.455,0,0,0-.849.72s1.249-.166,1.349.886-1.449,2.327-3.047,2.6a11.5,11.5,0,0,1-2,.111c-3.047-.942-6.044.222-7.893,1.052-2.148.831-4.945,2.714-8.092,3.213-3.147.443-6.594-2.271-7.543-5.484a5.463,5.463,0,0,1,.849-4.487,1.908,1.908,0,0,1,2.9,0c.749.831-.1,1.662-.549,1.329-.45-.277-.1-.72-.1-.776,0,0-.15,0-.25.222a.74.74,0,0,0,.35.942.978.978,0,0,0,1.3-.665,1.833,1.833,0,0,0-.7-1.939,2.661,2.661,0,0,0-2.148-.609,3.166,3.166,0,0,0-2,1.717,6.764,6.764,0,0,0-.1,5.816,9.611,9.611,0,0,0,4.046,4.154,7.394,7.394,0,0,0,5.145.609,41.42,41.42,0,0,0,6.194-2.6c-.8.388-1.3.72-1.349.72a30.775,30.775,0,0,1,3.746-1.44,5.361,5.361,0,0,1,3.5.332,2.069,2.069,0,0,1,1,1.108,1.291,1.291,0,0,1-.25,1.219.737.737,0,0,1-1.1.166c-.15-.166-.25-.277-.25-.443s.1-.388.05-.443-.3,0-.45.332a.929.929,0,0,0,.35,1.108,1,1,0,0,0,.649.222,1.29,1.29,0,0,0,1.149-.609,1.846,1.846,0,0,0,.25-1.717,2.327,2.327,0,0,0-1.249-1.219,6.725,6.725,0,0,0-1.7-.388,9.32,9.32,0,0,1,2.148.111,7.342,7.342,0,0,1,4.646,3.213c.949,1.551.25,2.6.1,2.548a.621.621,0,0,1-.8-.055c-.15-.277.05-.5.1-.609.1-.166-.749-.166-.7.776a1.1,1.1,0,0,0,1.848.609,1.844,1.844,0,0,0,.649-1.219A3.846,3.846,0,0,0,54.9,466.2a8.3,8.3,0,0,0-5.145-3.268,10.865,10.865,0,0,0-5,.665,10.651,10.651,0,0,1,4.8-1.108c2.847,0,6.893,2.16,7.293,6.093a5.21,5.21,0,0,1-2,4.487,2.2,2.2,0,0,1-3.347-.277c-.949-1.052-.7-1.44-.25-2.1.5-.72-.25-1.329-.3-1.385,0-.055-.849-.388-1.249.886-.5.609-.35,2.382.45,3.324a3.612,3.612,0,0,0,3.746,1.274,5.181,5.181,0,0,0,3.5-3.6,6.93,6.93,0,0,0-.649-5.761,8.312,8.312,0,0,0-3.6-3.213A4.25,4.25,0,0,0,57.346,460.883Zm-26.725.111c.25-.332.7.332.6.443-.15.277.549-.222.2-.665a.848.848,0,0,0-1.449.388c-.25.776.25,3.213,3.4,4.376,2.947,1.053,7.193-1.108,9.791-2.991,2.348-1.717,5.445-5.262,2.847-6.426-1-.443-2.148.443-1.549,1.108s2.048,1.053-.15,3.268-7.243,6.038-11.189,4.432C31.071,463.874,29.772,462.157,30.621,460.994Zm45.157,3.656c-1.9,1.053-2.947.942-4.945.665-2.1-.277-6.993-2.382-6.993-2.382-.1.111,5.695,3.379,8.742,3.268s4.7-1.329,5.645-2.659,1.4-3.711,0-4.93c-1.449-1.219-4.246.388-2.9,2.936.1-1.053.8-2.105,1.948-1.883a1.785,1.785,0,0,0-.5,1.607c.35-.776,1.149-1.163,1.349-.443C78.426,461.6,77.527,463.652,75.779,464.65Zm.9,3.047a20.663,20.663,0,0,0-3.3.609c-2.1.388-4.1-.942-5.445-1.828a19.833,19.833,0,0,0-2.3-1.5s.849.72,2.148,1.717,3.247,2.548,5.645,2.327a13.48,13.48,0,0,1,3.2-.388,2.658,2.658,0,0,1,2.2,1.163,2.412,2.412,0,0,1-.25,2.659,2.218,2.218,0,0,1-2,.831c-.9-.111-1.4-1-1.6-.942-.15,0,.05,1.385,1.349,1.883a2.771,2.771,0,0,0,3.2-.886,3.778,3.778,0,0,0,.649-1.33,3.645,3.645,0,0,0-.45-2.88A3.469,3.469,0,0,0,76.678,467.7Zm-10.64-6.537c2.8-2.1,5.145-2.659,5.745-2.437,0,0-2.2-1.5-4.246-.942s-3.647,2.16-6.394,2.382a12.909,12.909,0,0,0-2.6.388C58.945,460.994,62.891,463.542,66.038,461.16ZM89.815,466.2a6.3,6.3,0,0,0-5.545-2.991,13.284,13.284,0,0,0-6.344,2.16,9.411,9.411,0,0,1-5.894,1.717c-1.948-.166-3.547-1.385-5-2.216a21.123,21.123,0,0,0-4.945-2.271,28.942,28.942,0,0,1,4.8,2.6c1.349.831,2.947,2.216,5.1,2.493a9.847,9.847,0,0,0,6.344-1.5,11.558,11.558,0,0,1,5.944-1.773,5.2,5.2,0,0,1,4.446,2.548,4.491,4.491,0,0,1,0,3.933,2.357,2.357,0,0,1-.8,1.108,1.806,1.806,0,0,1-2.348-1.108,1.452,1.452,0,0,0,.35,1.883,2.672,2.672,0,0,1-.949-.055c-.849-.111-1.549-.554-1.7-.388-.1.166.3,1,1.349,1.606a3.631,3.631,0,0,0,3.8-.222C88.866,473.679,91.913,470.521,89.815,466.2Zm-5.145,3.213c.949-.72,1.5-3.213-.5-4.044-2.548-1.053-5.595,1.274-5.595,1.274,1-.443,4.146-1.551,5.395-.443,1.249,1.052.649,3.213-.7,2.77.05-.332.25-.665-.1-.942-.4-.277-.949.111-.8.72A1.366,1.366,0,0,0,84.67,469.413Zm-64.339-4.93c.05-.5-.2-.609-.35-.609s-.35.055-.5.443a29.53,29.53,0,0,1-2.9,6.537,48.177,48.177,0,0,1-3.547,4.875c-.5.554-1.4,1.606-.549,2.548.7.831,1.848,0,2.4-.831a34.278,34.278,0,0,0,3.5-6.149A22.76,22.76,0,0,0,20.331,464.483Zm2.548-.886a.565.565,0,0,0-.2.609c.7,1.717.7,6.149.35,6.7-.05.554-.35,2.1.8,2.493.949.332,1.6-1.274,1.648-2.16a13.607,13.607,0,0,0-2.048-7.534C23.228,463.375,23.029,463.486,22.879,463.6Zm-3.8-.111c-.1-.111-.35-.166-.7.111-1.848,1.606-9.641,8.974-10.59,10.248-.6.665-1.4,1.773-.549,2.714.749.776,1.8-.055,2.4-.886,1.648-1.828,8.092-9.528,9.391-11.467C19.332,463.819,19.182,463.6,19.082,463.486Zm2.6.332c-.15.055-.35.222-.35.665a19.275,19.275,0,0,1-1.1,6.426,21.107,21.107,0,0,1-2.4,4.819c-.45.665-1.1,1.773-.15,2.548.8.72,1.748-.222,2.248-1.163a23.889,23.889,0,0,0,2.148-6.26,16.691,16.691,0,0,0,.05-6.536C22.03,463.819,21.78,463.819,21.68,463.819Zm-9.341,2.271a23.488,23.488,0,0,1,5.894-3.213c.35-.166.45-.388.4-.554,0-.166-.1-.388-.549-.388a17.317,17.317,0,0,0-6.144,2.16,33.137,33.137,0,0,0-5.545,3.878c-.7.609-1.449,1.883-.749,2.659.849.942,1.8-.055,2.3-.609A35.059,35.059,0,0,1,12.339,466.09Zm6.544-6.98a.438.438,0,0,0-.1-.609,10.731,10.731,0,0,0-6.794-2.271c-.749,0-2.248.72-1.948,1.828.35,1.274,1.748.942,2.248.886.549-.388,4.546-.388,6.044.388A.465.465,0,0,0,18.883,459.11ZM12.339,460a19.047,19.047,0,0,0-5.645,2.382c-.849.554-1.7,1.606-1.049,2.493.749,1,1.7.277,2.3-.166a20.111,20.111,0,0,1,4.346-2.659,15.507,15.507,0,0,1,5.795-1.219c.4,0,.549-.166.6-.388.05-.166.05-.388-.45-.554A13.253,13.253,0,0,0,12.339,460Z" transform="translate(0 -170.147)" fill="#ff0096"/>
    <path id="パス_8" data-name="パス 8" d="M700.546,392.3c-.3-.055-.6-.277-.849.111a.589.589,0,0,0,.649.886c.849-.166,1.249-1.5.6-2.6a1.992,1.992,0,0,0-3.646.554c-.949,2.825,1.149,6.2,1.149,6.2-.4-1.108-1.349-4.6-.4-5.983S700.945,390.754,700.546,392.3Zm8.142,13.738c-.8,2.659-5.794,1.551-8.992,3.878-2.5,1.828-5.045,6.869-5.295,8.2,0,0,.45-.554,1.149-1.385a33.2,33.2,0,0,1,4.246.665c3,.609,5.395-1.773,5.395-1.773s-.7.72-2.947-.111a6.5,6.5,0,0,0-6.194.609c.35-.388.8-.775,1.2-1.163,2.348-2.105,4.945-1.163,7.992-3.324A8.243,8.243,0,0,0,708.688,406.043Zm-19.731,27.586c-.4,1.108.4,2.382,1,1.717s.949-2.271,2.947.166,5.445,8.032,4,12.408c-.949,2.326-2.547,3.767-3.547,2.825-.3-.277.3-.776.4-.665.25.166-.2-.609-.6-.222a1.03,1.03,0,0,0,.35,1.606c.7.332,2.9-.277,3.946-3.767.949-3.268-1-7.977-2.7-10.857C693.153,434.183,690.006,430.693,688.957,433.629Zm17.484,13.018c4.146.111,3.647-7.035-.7-6.7-4.9.388-4.8,7.2-6.494,10.359A8.381,8.381,0,0,1,692,454.789s.649.776,4.4-.388a5.72,5.72,0,0,0,2.1-1.163,24.9,24.9,0,0,0,3.1-2.659,2.1,2.1,0,0,1,1.049-.332s.1-.332-.7-.5a2.263,2.263,0,0,0-.849.055,16.788,16.788,0,0,0,.9-1.939,2.1,2.1,0,0,1,1.649-1.108,2.372,2.372,0,0,1,1.149.554,1.9,1.9,0,0,0-.849-1.773,1.494,1.494,0,0,0-.849-.332c1.1-2.216,2.648-2.77,3.6-1.329A2.136,2.136,0,0,1,706.44,446.647Zm-1.149-46.586a3.511,3.511,0,0,0-.8-3.545,3.234,3.234,0,0,0-1.2-.72,2.769,2.769,0,0,0-2.6.5,4.2,4.2,0,0,0-1.3,3.324,25.542,25.542,0,0,0,.549,3.6c.35,2.327-.849,4.542-1.648,6.038a23.18,23.18,0,0,0-1.349,2.548s.6-.942,1.549-2.382c.9-1.44,2.3-3.6,2.1-6.26a18.2,18.2,0,0,1-.35-3.545,3.167,3.167,0,0,1,1.049-2.437,1.8,1.8,0,0,1,2.4.332,2.732,2.732,0,0,1,.749,2.216c-.1,1-.9,1.551-.849,1.773C703.593,401.667,704.792,401.445,705.291,400.06ZM693.5,411.471c-1.9-3.1-2.4-5.706-2.2-6.37a7.772,7.772,0,0,0-.849,4.708c.5,2.271,1.948,4.044,2.148,7.09a17.342,17.342,0,0,0,.35,2.881C693.353,419.282,695.651,414.961,693.5,411.471Zm5.595,32.073a11.078,11.078,0,0,1-.8,6.924,7.328,7.328,0,0,1-1.9,2.437,5.2,5.2,0,0,0,2.048-2.327,11.171,11.171,0,0,0,1.1-7.146c-.45-2.659-1.4-5.262-1.848-7.257a2.955,2.955,0,0,1,.25-2.271c.3-.443.55-.388.6-.388a.6.6,0,0,1,.35.886c-.2.443-.35.332-.5.277-.05,0-.15.222.1.443a.753.753,0,0,0,.9-.277,1.445,1.445,0,0,0,.3-1.329,1.468,1.468,0,0,0-1-.942,1.37,1.37,0,0,0-1.4.831,3.835,3.835,0,0,0-.25,2.936C697.549,438.559,698.548,440.941,699.1,443.544Zm5.944-52.735a4.7,4.7,0,0,0-6.993-5.761,7.491,7.491,0,0,0-2.7,6.149,17.09,17.09,0,0,0,1.948,7.035,12.233,12.233,0,0,1,1.548,6.536c-.15,2.16-1.249,3.933-2,5.539a25.243,25.243,0,0,0-2.048,5.484,42.979,42.979,0,0,1,2.348-5.318c.749-1.5,2-3.268,2.248-5.65a12.566,12.566,0,0,0-1.4-7.035,15.04,15.04,0,0,1-1.6-6.592,6.1,6.1,0,0,1,2.3-4.93,3.384,3.384,0,0,1,3.547,0,2.231,2.231,0,0,1,1,.886c.3.831,0,2.327-1,2.6a1.143,1.143,0,0,0,1.7-.388,7.058,7.058,0,0,1-.05,1.053c-.1.942-.5,1.662-.35,1.883C703.793,392.416,704.542,391.973,705.042,390.809Zm-9.391,7.035c-1.2-1.053-3.347-1.551-4.446,0-1.1,1.606.35,4.708,2.647,3.213a1.853,1.853,0,0,1-1.7-2.16,1.422,1.422,0,0,0,1.449.554c-.7-.388-1.049-1.274-.4-1.5.649-.277,2.548.72,3.4,2.659.949,2.1.849,3.268.6,5.484a52.86,52.86,0,0,1-2.148,7.7c.1.111,3.047-6.315,2.947-9.694C697.948,400.725,696.849,398.9,695.651,397.844Zm-7.393,51.295a3.722,3.722,0,0,0-.549,2.382,3.173,3.173,0,0,0,1.548,2.16,5.085,5.085,0,0,0,5.245.111,9.837,9.837,0,0,0,3.747-4.487,9.511,9.511,0,0,0,.549-5.706,52.053,52.053,0,0,0-2.348-6.869c.35.886.649,1.44.649,1.5a39.12,39.12,0,0,1-1.3-4.155,7.243,7.243,0,0,1,.3-3.878,2.064,2.064,0,0,1,1-1.108,1,1,0,0,1,1.1.277.943.943,0,0,1,.15,1.219c-.15.166-.25.277-.4.277s-.35-.111-.4-.055,0,.332.3.5a.761.761,0,0,0,1-.388,1.261,1.261,0,0,0,.2-.72,1.551,1.551,0,0,0-.549-1.274,1.416,1.416,0,0,0-1.549-.277,2.419,2.419,0,0,0-1.1,1.385,8.93,8.93,0,0,0-.35,1.883,12.687,12.687,0,0,1,.1-2.382,8.629,8.629,0,0,1,2.9-5.207c1.4-1.052,2.348-.277,2.3-.111a.811.811,0,0,1-.05.886c-.25.166-.45-.055-.549-.111-.15-.111-.15.831.7.776.8-.111,1.1-1.44.549-2.05a1.638,1.638,0,0,0-1.149-.72,2.991,2.991,0,0,0-2.2.72,9.353,9.353,0,0,0-2.947,5.706,14.609,14.609,0,0,0,.6,5.539,16.338,16.338,0,0,1-1-5.318c0-3.157,1.948-7.644,5.495-8.088a4.394,4.394,0,0,1,4.046,2.216,2.8,2.8,0,0,1-.25,3.711c-.949,1.053-1.3.776-1.9.277-.649-.554-1.2.277-1.249.332-.05,0-.35.942.8,1.385.549.554,2.148.443,3-.5a4.493,4.493,0,0,0,1.149-4.155,5.49,5.49,0,0,0-3.247-3.933,5.366,5.366,0,0,0-5.195.72,8.58,8.58,0,0,0-2.9,3.988c0-1.5-.25-3.49-1.449-4.6a2.446,2.446,0,0,0-4.246,1.5c0,1.44,1,1.606,1,1.606s-.35-1.5.2-1.994a1.618,1.618,0,0,0,.649.942s-.15-1.385.8-1.5,2.1,1.606,2.4,3.379a15.657,15.657,0,0,1,.1,2.216c-.849,3.379.2,6.7.949,8.752.749,2.382,2.448,5.484,2.9,8.974a8.475,8.475,0,0,1-4.945,8.364,4.206,4.206,0,0,1-4.046-.942,2.448,2.448,0,0,1,0-3.213c.749-.831,1.5.111,1.2.609-.25.5-.649.111-.7.111a.345.345,0,0,0,.2.277c.15.166.7.055.849-.388a1.158,1.158,0,0,0-.6-1.44C689.406,448.142,688.707,448.53,688.258,449.139Zm-15.336,25.592c-.3,4.819,6.144,5.373,6.044.776a1.646,1.646,0,0,1-2.448.277c-1.3-1.053-.8-2.77,1.2-3.933a1.894,1.894,0,0,0,.3.942c.749,1.163,1.6.942,1.6.942a2.885,2.885,0,0,1-.5-1.274,2.4,2.4,0,0,1,1-1.828,18.86,18.86,0,0,0,1.748-1,3.074,3.074,0,0,0-.05.942c.15.886.449.776.449.776a2.087,2.087,0,0,1,.3-1.163,26.794,26.794,0,0,0,2.4-3.434,6.863,6.863,0,0,0,1.049-2.327c1.049-4.155.35-4.875.35-4.875a9.654,9.654,0,0,1-4.046,8.032C679.416,469.413,673.322,469.3,672.922,474.731Zm-6.544-7.866a1.428,1.428,0,0,0,.849,1.108,1.133,1.133,0,0,0,1.2-.332.952.952,0,0,0,.25-1c-.2-.277-.35-.166-.4-.111.05.166.15.332-.25.554s-.649-.055-.8-.388c0-.055-.1-.277.35-.665a2.378,2.378,0,0,1,2.048-.277c1.8.5,4.146,1.551,6.544,2.05a8.507,8.507,0,0,0,6.444-1.219,5.649,5.649,0,0,0,2.1-2.271,6.023,6.023,0,0,1-2.148,2.105,8.358,8.358,0,0,1-6.244.886c-2.348-.609-4.546-1.717-6.444-2.327a2.906,2.906,0,0,0-2.647.277A1.78,1.78,0,0,0,666.378,466.865ZM642.4,478a7.724,7.724,0,0,0,5.145-3.767c1.948-3.324,1.1-6.26,3-8.863a13.92,13.92,0,0,1,1.049-1.329,8.411,8.411,0,0,0-.549,6.869c.749,2.493.1,3.268.1,3.268a8.028,8.028,0,0,0,1.6-5.983,44.734,44.734,0,0,1-.6-4.708c.7-.776,1.249-1.274,1.249-1.274-1.2.222-5.794,3.1-7.393,5.872C643.8,471.629,644.8,477.113,642.4,478Zm17.683-15.51a8.313,8.313,0,0,0-3.6,3.213,7.074,7.074,0,0,0-.649,5.761,5.274,5.274,0,0,0,3.5,3.6,3.4,3.4,0,0,0,3.746-1.274c.8-.942.949-2.714.45-3.324-.35-1.274-1.249-.942-1.249-.886-.05.055-.8.665-.3,1.385.45.665.7,1.052-.25,2.1a2.278,2.278,0,0,1-3.347.277,4.913,4.913,0,0,1-2-4.487c.4-3.933,4.4-6.093,7.293-6.093a12.355,12.355,0,0,1,4.8,1.108,10.866,10.866,0,0,0-5-.665,8.076,8.076,0,0,0-5.145,3.268,3.56,3.56,0,0,0-.649,2.437,1.845,1.845,0,0,0,.649,1.219,1.12,1.12,0,0,0,1.848-.609c.1-.942-.749-.942-.7-.775.05.111.25.332.1.609a.554.554,0,0,1-.8.055c-.15,0-.849-1,.1-2.548a7.616,7.616,0,0,1,4.646-3.213,9.468,9.468,0,0,1,2.148-.111,3.948,3.948,0,0,0-1.7.388,2.327,2.327,0,0,0-1.249,1.219,1.718,1.718,0,0,0,.25,1.717,1.289,1.289,0,0,0,1.149.609,1.14,1.14,0,0,0,.649-.222.929.929,0,0,0,.35-1.108c-.15-.332-.4-.388-.45-.332s.05.277.05.443-.1.277-.25.443a.737.737,0,0,1-1.1-.166,1.291,1.291,0,0,1-.25-1.219,2.281,2.281,0,0,1,1-1.108,5.343,5.343,0,0,1,3.5-.332,27.234,27.234,0,0,1,3.746,1.44c-.05,0-.549-.332-1.349-.72a41.428,41.428,0,0,0,6.194,2.6,7.336,7.336,0,0,0,5.145-.609,9.919,9.919,0,0,0,4.046-4.155,6.594,6.594,0,0,0-.1-5.816,3.05,3.05,0,0,0-2-1.717,2.48,2.48,0,0,0-2.148.609,1.833,1.833,0,0,0-.7,1.939.992.992,0,0,0,1.3.665.682.682,0,0,0,.35-.942c-.1-.222-.25-.277-.25-.222-.05.055.3.5-.1.776-.5.332-1.3-.5-.549-1.329a1.836,1.836,0,0,1,2.9,0,5.653,5.653,0,0,1,.849,4.487c-.949,3.157-4.4,5.927-7.543,5.484-3.147-.5-5.944-2.382-8.092-3.213-1.9-.831-4.845-1.994-7.892-1.053a11.5,11.5,0,0,1-2-.111c-1.6-.277-3.2-1.551-3.047-2.6.1-1.053,1.349-.886,1.349-.886a1.455,1.455,0,0,0-.849-.72c.4-.609,1.8-.222,1.8-.222a1.357,1.357,0,0,0-1.449-1.108c-1.3,0-3.1,2.382-1.349,4.709A6.269,6.269,0,0,0,660.084,462.489Zm20.031,2.437c-3.946,1.606-8.991-2.271-11.189-4.432-2.2-2.216-.749-2.6-.15-3.268s-.549-1.551-1.549-1.108c-2.6,1.163.5,4.709,2.847,6.426,2.6,1.939,6.844,4.1,9.791,2.991,3.1-1.163,3.646-3.6,3.4-4.376a.845.845,0,0,0-1.449-.388c-.35.443.35.942.2.665-.1-.166.4-.776.6-.443C683.512,462.157,682.213,463.874,680.115,464.927Zm-45.007-4.044c.25-.72,1-.332,1.349.443a1.825,1.825,0,0,0-.5-1.606c1.149-.222,1.848.831,1.948,1.883,1.349-2.6-1.449-4.155-2.9-2.936s-1,3.6,0,4.93c.949,1.329,2.6,2.548,5.645,2.659s8.842-3.213,8.742-3.268a42.785,42.785,0,0,1-6.943,2.382c-2,.277-3,.388-4.945-.665C635.757,463.652,634.858,461.6,635.108,460.883Zm-1.5,8.254a3.451,3.451,0,0,0-.45,2.881,3.778,3.778,0,0,0,.649,1.329,2.7,2.7,0,0,0,3.2.886c1.3-.554,1.5-1.884,1.349-1.884-.15-.055-.7.831-1.6.942a2.163,2.163,0,0,1-2-.831,2.264,2.264,0,0,1-.3-2.659,2.658,2.658,0,0,1,2.2-1.163,13.78,13.78,0,0,1,3.2.388c2.4.222,4.346-1.329,5.645-2.327,1.3-1.052,2.148-1.773,2.148-1.717a15.826,15.826,0,0,0-2.3,1.5c-1.349.942-3.347,2.216-5.445,1.828a12.566,12.566,0,0,0-3.247-.609A3.36,3.36,0,0,0,633.609,469.136Zm21.18-8.531a12.9,12.9,0,0,0-2.6-.388c-2.747-.222-4.346-1.828-6.394-2.382s-4.246.942-4.246.942c.6-.222,2.947.332,5.745,2.437C650.393,463.542,654.34,460.994,654.789,460.606ZM624.867,473.79a3.631,3.631,0,0,0,3.8.222c1.049-.554,1.449-1.44,1.349-1.607-.2-.166-.849.222-1.7.388a5.452,5.452,0,0,1-.949.055,1.446,1.446,0,0,0,.35-1.883,1.734,1.734,0,0,1-2.348,1.108,3.167,3.167,0,0,1-.8-1.108,4.666,4.666,0,0,1,0-3.933,5.2,5.2,0,0,1,4.446-2.548,12.111,12.111,0,0,1,5.944,1.773,9.777,9.777,0,0,0,6.344,1.5c2.1-.332,3.7-1.662,5.1-2.493a40.255,40.255,0,0,1,4.8-2.6,22.211,22.211,0,0,0-4.945,2.271c-1.449.776-3,1.994-5,2.216a9.588,9.588,0,0,1-5.894-1.717,12.722,12.722,0,0,0-6.344-2.16,6.3,6.3,0,0,0-5.545,2.991C621.371,470.521,624.418,473.679,624.867,473.79Zm6.044-5.041c.1-.609-.45-1-.8-.72-.4.277-.15.554-.1.942-1.4.443-2-1.662-.7-2.77,1.249-1.053,4.4,0,5.395.443,0,0-3.047-2.327-5.595-1.274-2,.831-1.449,3.268-.5,4.044A1.366,1.366,0,0,0,630.912,468.749ZM694.9,471.3a37.7,37.7,0,0,0,3.5,6.149c.549.775,1.7,1.606,2.4.831.8-.942-.05-1.994-.549-2.548a31.174,31.174,0,0,1-6.444-11.411c-.15-.388-.35-.5-.5-.443-.15,0-.35.111-.35.609A22.758,22.758,0,0,0,694.9,471.3Zm-5.045-7.589a13.764,13.764,0,0,0-2.048,7.534c0,.831.649,2.493,1.648,2.16,1.149-.388.849-1.939.8-2.493-.35-.609-.35-5.041.35-6.7a.5.5,0,0,0-.2-.609C690.256,463.486,690.056,463.375,689.856,463.708Zm4.4.554c1.349,1.939,7.743,9.694,9.391,11.467.6.776,1.648,1.662,2.4.886.849-.886,0-2.05-.55-2.714-.9-1.329-8.742-8.641-10.59-10.248-.35-.277-.6-.277-.7-.111C694.1,463.6,693.952,463.819,694.252,464.262Zm-3.1.055a16.693,16.693,0,0,0,.05,6.537,23.884,23.884,0,0,0,2.148,6.26c.5.942,1.449,1.883,2.248,1.163.9-.831.25-1.883-.15-2.548a23.556,23.556,0,0,1-2.4-4.819,20.437,20.437,0,0,1-1.1-6.426c0-.443-.15-.665-.35-.665C691.5,463.819,691.255,463.819,691.155,464.317Zm14.187,5.761c.5.554,1.449,1.551,2.3.609.749-.776,0-2.05-.749-2.659a30.122,30.122,0,0,0-5.545-3.878,17.642,17.642,0,0,0-6.144-2.16c-.45-.055-.549.222-.549.388a.579.579,0,0,0,.4.554,24.375,24.375,0,0,1,5.894,3.213A27.7,27.7,0,0,1,705.341,470.078Zm-10.39-10.746c1.549-.776,5.545-.776,6.044-.388.5.055,1.9.388,2.248-.886.3-1.052-1.149-1.773-1.948-1.828a10.377,10.377,0,0,0-6.744,2.271.4.4,0,0,0-.1.609C694.5,459.276,694.651,459.387,694.951,459.332Zm.15.609c-.45.166-.45.388-.45.554a.559.559,0,0,0,.6.388,14.462,14.462,0,0,1,5.794,1.219,19.215,19.215,0,0,1,4.346,2.659c.6.5,1.6,1.219,2.3.166.649-.886-.2-1.939-1.049-2.493A19.049,19.049,0,0,0,701,460.052,11.757,11.757,0,0,0,695.1,459.941Z" transform="translate(-309.666 -170.147)" fill="#ff0096"/>
    <path id="パス_9" data-name="パス 9" d="M698.048,89.932c-.949-1.385,0-4.875.4-5.983,0,0-2.1,3.379-1.149,6.2a2,2,0,0,0,3.646.554c.649-1.052.25-2.382-.6-2.6a.6.6,0,0,0-.649.886c.25.443.5.166.849.111C700.945,90.707,699,91.372,698.048,89.932Zm7.243-20.219c-3-2.16-5.645-1.219-7.992-3.324a13.372,13.372,0,0,1-1.2-1.163,6.352,6.352,0,0,0,6.194.609c2.248-.831,2.947-.111,2.947-.111s-2.4-2.437-5.395-1.773a33.21,33.21,0,0,1-4.246.665c-.7-.776-1.149-1.385-1.149-1.385.2,1.329,2.8,6.426,5.295,8.2,3.2,2.327,8.192,1.219,8.992,3.878A9.235,9.235,0,0,0,705.291,69.713Zm-10.54-25.038c1.748-2.88,3.7-7.589,2.7-10.857-1.049-3.49-3.247-4.044-3.946-3.767a1.025,1.025,0,0,0-.35,1.606c.45.388.849-.388.6-.222-.15.111-.7-.443-.4-.665,1.049-.942,2.6.5,3.547,2.825,1.449,4.376-2.048,9.971-4,12.408-2,2.437-2.348.831-2.947.166s-1.4.609-1,1.717C690.006,50.768,693.153,47.278,694.751,44.675Zm11.939-7.09c-.949,1.44-2.5.886-3.6-1.329a1.494,1.494,0,0,0,.849-.332,1.9,1.9,0,0,0,.849-1.773,2.371,2.371,0,0,1-1.149.554,2.1,2.1,0,0,1-1.648-1.108c-.25-.609-.55-1.274-.9-1.939a2.265,2.265,0,0,0,.849.055c.8-.166.7-.5.7-.5a1.6,1.6,0,0,1-1.049-.332,24.9,24.9,0,0,0-3.1-2.659,5.719,5.719,0,0,0-2.1-1.163c-3.746-1.163-4.4-.388-4.4-.388a8.268,8.268,0,0,1,7.243,4.487c1.648,3.157,1.6,9.916,6.494,10.359,4.346.332,4.845-6.813.7-6.7A2.162,2.162,0,0,1,706.69,37.584Zm-3.1,42.376c-.05.166.749.776.849,1.717a2.657,2.657,0,0,1-.749,2.216,1.786,1.786,0,0,1-2.4.277,3.167,3.167,0,0,1-1.049-2.437,18.635,18.635,0,0,1,.35-3.545c.2-2.659-1.2-4.819-2.1-6.26-.949-1.44-1.6-2.382-1.549-2.382A18.489,18.489,0,0,0,698.3,72.1c.849,1.5,2,3.711,1.648,6.038a16.821,16.821,0,0,0-.549,3.6,4.182,4.182,0,0,0,1.3,3.324,2.628,2.628,0,0,0,2.6.5,3.233,3.233,0,0,0,1.2-.72,3.407,3.407,0,0,0,.8-3.545C704.792,80.016,703.593,79.795,703.593,79.961Zm-10.64-18.28a17.34,17.34,0,0,0-.35,2.88c-.2,3.047-1.648,4.819-2.148,7.09a7.773,7.773,0,0,0,.849,4.709c-.2-.665.3-3.268,2.2-6.37C695.651,66.5,693.353,62.179,692.953,61.681ZM697,45.063a3.864,3.864,0,0,0,.25,2.936,1.464,1.464,0,0,0,1.4.831,1.36,1.36,0,0,0,1-.942,1.446,1.446,0,0,0-.3-1.329.753.753,0,0,0-.9-.277c-.25.222-.15.388-.1.443.15-.055.3-.166.5.277a.639.639,0,0,1-.35.886c-.05,0-.25.111-.6-.388a3,3,0,0,1-.25-2.216c.45-1.994,1.4-4.6,1.848-7.257a11.17,11.17,0,0,0-1.1-7.146,5.549,5.549,0,0,0-2.048-2.327,6.061,6.061,0,0,1,1.9,2.437,11.133,11.133,0,0,1,.8,6.924C698.548,40.52,697.549,42.958,697,45.063Zm6.594,44.094c-.15.222.2.942.35,1.883a7.43,7.43,0,0,1,.05,1.052,1.139,1.139,0,0,0-1.7-.388c1,.222,1.3,1.717,1,2.6a2.98,2.98,0,0,1-1,.886,3.379,3.379,0,0,1-3.547,0,6.1,6.1,0,0,1-2.3-4.93,15.763,15.763,0,0,1,1.6-6.592,13.374,13.374,0,0,0,1.4-7.035c-.3-2.382-1.5-4.1-2.248-5.65a55.1,55.1,0,0,1-2.348-5.318,27.829,27.829,0,0,0,2.048,5.484,16.075,16.075,0,0,1,2,5.539,12.472,12.472,0,0,1-1.549,6.537,16.358,16.358,0,0,0-1.948,7.035,7.491,7.491,0,0,0,2.7,6.149,4.7,4.7,0,0,0,6.993-5.761C704.542,89.489,703.793,89.046,703.593,89.156Zm-5.545-11.8c.1-3.379-2.9-9.8-2.947-9.694a55.113,55.113,0,0,1,2.148,7.7c.25,2.216.35,3.324-.6,5.484-.849,1.939-2.747,2.881-3.4,2.659-.65-.277-.3-1.108.4-1.5a1.45,1.45,0,0,0-1.449.554,1.853,1.853,0,0,1,1.7-2.16c-2.348-1.5-3.8,1.606-2.647,3.213,1.1,1.606,3.247,1.108,4.446,0C696.849,82.564,697.948,80.736,698.048,77.357Zm-8.043-44.315a1.1,1.1,0,0,0,.549-1.44.636.636,0,0,0-.849-.443c-.2.111-.25.277-.2.277,0,.055.45-.332.7.111.3.554-.449,1.44-1.2.609a2.34,2.34,0,0,1,0-3.213A4.346,4.346,0,0,1,693.053,28,8.475,8.475,0,0,1,698,36.366c-.45,3.49-2.148,6.592-2.9,8.974-.749,2.1-1.8,5.373-.949,8.752a15.646,15.646,0,0,1-.1,2.216c-.25,1.773-1.4,3.545-2.4,3.379-.949-.111-.8-1.5-.8-1.5a1.618,1.618,0,0,0-.65.942c-.549-.443-.2-1.994-.2-1.994s-1,.166-1,1.606a2.453,2.453,0,0,0,4.246,1.5c1.2-1.163,1.449-3.157,1.449-4.6a8.869,8.869,0,0,0,2.9,3.988,5.349,5.349,0,0,0,5.2.72,5.406,5.406,0,0,0,3.247-3.878,4.253,4.253,0,0,0-1.149-4.155c-.849-.886-2.448-1.052-3-.5-1.149.388-.849,1.385-.8,1.385.05.055.6.886,1.249.332.6-.5.949-.776,1.9.277a2.924,2.924,0,0,1,.25,3.711,4.152,4.152,0,0,1-4.046,2.216c-3.547-.443-5.495-4.875-5.495-8.088a16.341,16.341,0,0,1,1-5.318,14.612,14.612,0,0,0-.6,5.539,9.353,9.353,0,0,0,2.947,5.706,2.773,2.773,0,0,0,2.2.72,1.934,1.934,0,0,0,1.149-.72c.5-.609.25-1.939-.549-2.05-.849-.111-.849.831-.7.776.1-.055.3-.277.549-.111a.712.712,0,0,1,.05.886c0,.166-.9.942-2.3-.111a8.629,8.629,0,0,1-2.9-5.207,12.877,12.877,0,0,1-.1-2.382,5.231,5.231,0,0,0,.35,1.883,2.42,2.42,0,0,0,1.1,1.385,1.324,1.324,0,0,0,1.549-.277,1.552,1.552,0,0,0,.549-1.274,1.45,1.45,0,0,0-.2-.72.76.76,0,0,0-1-.388c-.3.166-.35.443-.3.5s.25-.055.4-.055.25.111.4.277a.943.943,0,0,1-.15,1.219,1,1,0,0,1-1.1.277,2.064,2.064,0,0,1-1-1.108,7.2,7.2,0,0,1-.3-3.878,34.6,34.6,0,0,1,1.3-4.155c0,.055-.3.609-.649,1.5A52.117,52.117,0,0,0,699,37.7a9.83,9.83,0,0,0-.549-5.706A10.151,10.151,0,0,0,694.7,27.5a4.961,4.961,0,0,0-5.245.111,3.3,3.3,0,0,0-1.548,2.16,3.2,3.2,0,0,0,.549,2.382A1.174,1.174,0,0,0,690.006,33.042Zm-7.743-19.111a9.787,9.787,0,0,1,4.046,8.032s.7-.72-.35-4.875a6.864,6.864,0,0,0-1.049-2.327,26.816,26.816,0,0,0-2.4-3.434,2.741,2.741,0,0,1-.3-1.163s-.3-.111-.45.776a3.074,3.074,0,0,0,.05.942,14.043,14.043,0,0,0-1.748-1,2.4,2.4,0,0,1-1-1.828,2.885,2.885,0,0,1,.5-1.274s-.849-.222-1.6.942a1.9,1.9,0,0,0-.3.942c-2-1.219-2.5-2.88-1.2-3.988a1.674,1.674,0,0,1,2.448.277c.1-4.6-6.344-4.044-6.044.776C673.322,12.159,679.416,12.048,682.263,13.931Zm-15.136,2.216a2.866,2.866,0,0,0,2.648.277c1.9-.609,4.1-1.717,6.444-2.327a8.32,8.32,0,0,1,6.244.886,5.969,5.969,0,0,1,2.148,2.1,5.3,5.3,0,0,0-2.1-2.271,8.459,8.459,0,0,0-6.444-1.219c-2.4.5-4.745,1.551-6.544,2.05a2.235,2.235,0,0,1-2.048-.277c-.4-.332-.35-.609-.35-.665.1-.332.4-.665.8-.388.4.222.3.388.25.554,0,.055.2.111.4-.111a.952.952,0,0,0-.25-1,1.133,1.133,0,0,0-1.2-.332,1.54,1.54,0,0,0-.849,1.108A2.24,2.24,0,0,0,667.128,16.147ZM645.9,13.433c1.648,2.77,6.194,5.595,7.393,5.816,0,0-.5-.5-1.249-1.274a43.025,43.025,0,0,1,.6-4.709,8.273,8.273,0,0,0-1.6-5.983s.649.776-.1,3.268a8.614,8.614,0,0,0,.549,6.869c-.35-.388-.7-.886-1.049-1.329-1.9-2.6-1.049-5.484-3-8.863A7.724,7.724,0,0,0,642.3,3.462C644.8,4.348,643.8,9.832,645.9,13.433Zm10.041,7.146c-1.8,2.327.05,4.653,1.349,4.708a1.357,1.357,0,0,0,1.449-1.108s-1.349.388-1.8-.222a1.455,1.455,0,0,0,.849-.72s-1.249.166-1.349-.886,1.449-2.327,3.047-2.6a11.5,11.5,0,0,1,2-.111c3.047.942,6.044-.222,7.893-1.052,2.148-.831,4.945-2.714,8.092-3.213,3.147-.443,6.594,2.271,7.543,5.484a5.463,5.463,0,0,1-.849,4.487,1.871,1.871,0,0,1-2.9,0c-.749-.831.1-1.662.55-1.329.449.277.1.72.1.776,0,0,.15,0,.25-.222a.725.725,0,0,0-.35-.942.978.978,0,0,0-1.3.665,1.833,1.833,0,0,0,.7,1.939,2.66,2.66,0,0,0,2.148.609,3.166,3.166,0,0,0,2-1.717,6.764,6.764,0,0,0,.1-5.816,9.611,9.611,0,0,0-4.046-4.155,7.075,7.075,0,0,0-5.145-.609,41.423,41.423,0,0,0-6.194,2.6c.8-.388,1.3-.72,1.349-.72a30.774,30.774,0,0,1-3.747,1.44,5.361,5.361,0,0,1-3.5-.332,2.068,2.068,0,0,1-1-1.108,1.291,1.291,0,0,1,.25-1.219.737.737,0,0,1,1.1-.166c.15.166.25.277.25.443s-.1.388-.05.443.3,0,.45-.332a.929.929,0,0,0-.35-1.108,1,1,0,0,0-.649-.222,1.29,1.29,0,0,0-1.149.609,1.846,1.846,0,0,0-.25,1.717,2.327,2.327,0,0,0,1.249,1.219,6.722,6.722,0,0,0,1.7.388,7.01,7.01,0,0,1-2.148-.111,7.476,7.476,0,0,1-4.646-3.213c-.949-1.551-.25-2.6-.1-2.548a.615.615,0,0,1,.8.055c.15.277-.05.5-.1.609-.1.166.749.166.7-.776a1.1,1.1,0,0,0-1.848-.609,1.87,1.87,0,0,0-.649,1.274,3.56,3.56,0,0,0,.649,2.437,8.076,8.076,0,0,0,5.145,3.268,10.866,10.866,0,0,0,5-.665,10.651,10.651,0,0,1-4.8,1.108c-2.847,0-6.893-2.16-7.293-6.093a5.21,5.21,0,0,1,2-4.487,2.2,2.2,0,0,1,3.347.277c.949,1.052.7,1.44.25,2.1-.5.72.25,1.329.3,1.385,0,.055.849.388,1.249-.886.5-.609.35-2.382-.45-3.324a3.485,3.485,0,0,0-3.746-1.274,5.2,5.2,0,0,0-3.5,3.545,6.908,6.908,0,0,0,.65,5.761,8.311,8.311,0,0,0,3.6,3.213A4.282,4.282,0,0,0,655.938,20.579Zm26.725-.111c-.2.332-.7-.332-.6-.443.15-.277-.55.222-.2.665.35.5,1.149.388,1.449-.388.25-.776-.25-3.213-3.4-4.376-2.947-1.052-7.193,1.108-9.791,2.991-2.348,1.717-5.445,5.262-2.847,6.426,1,.443,2.148-.443,1.549-1.108s-2.048-1.052.15-3.268,7.243-6.038,11.19-4.432C682.213,17.587,683.512,19.3,682.663,20.468Zm-45.157-3.656c1.9-1.052,2.947-.942,4.945-.665,2.1.277,6.943,2.382,6.943,2.382.1-.111-5.695-3.434-8.742-3.268-3.047.111-4.7,1.329-5.645,2.659s-1.4,3.711,0,4.93c1.449,1.219,4.246-.388,2.9-2.936-.1,1.052-.8,2.1-1.948,1.883a1.785,1.785,0,0,0,.5-1.606c-.35.776-1.1,1.163-1.349.443C634.858,19.858,635.757,17.809,637.506,16.812Zm-.9-3.047a19.076,19.076,0,0,0,3.247-.609c2.1-.388,4.1.942,5.445,1.828a19.851,19.851,0,0,0,2.3,1.5s-.849-.72-2.148-1.717c-1.249-1-3.247-2.548-5.645-2.327a13.479,13.479,0,0,1-3.2.388,2.659,2.659,0,0,1-2.2-1.163,2.294,2.294,0,0,1,.3-2.659,2.218,2.218,0,0,1,2-.831c.9.111,1.4,1,1.6.942.15,0-.05-1.385-1.349-1.883a2.8,2.8,0,0,0-3.2.886,3.775,3.775,0,0,0-.649,1.329,3.645,3.645,0,0,0,.45,2.88A3.469,3.469,0,0,0,636.606,13.765Zm10.64,6.537c-2.8,2.1-5.145,2.659-5.745,2.437,0,0,2.2,1.5,4.246.942s3.647-2.16,6.394-2.382a12.9,12.9,0,0,0,2.6-.388C654.34,20.468,650.393,17.92,647.246,20.3Zm-23.778-5.041a6.3,6.3,0,0,0,5.545,2.991,13.108,13.108,0,0,0,6.344-2.16,9.411,9.411,0,0,1,5.894-1.717c1.948.166,3.547,1.385,5,2.216a21.128,21.128,0,0,0,4.945,2.271,28.94,28.94,0,0,1-4.8-2.6c-1.349-.831-2.947-2.216-5.1-2.493a9.847,9.847,0,0,0-6.344,1.5,11.559,11.559,0,0,1-5.944,1.773,5.2,5.2,0,0,1-4.446-2.548,4.491,4.491,0,0,1,0-3.933,2.358,2.358,0,0,1,.8-1.108,1.806,1.806,0,0,1,2.348,1.108,1.452,1.452,0,0,0-.35-1.883,5.179,5.179,0,0,1,.949.055c.849.111,1.5.554,1.7.388.1-.166-.3-1.052-1.349-1.606a3.631,3.631,0,0,0-3.8.222C624.418,7.782,621.371,10.94,623.469,15.261Zm5.145-3.213c-.949.72-1.549,3.213.5,4.044,2.547,1.052,5.595-1.274,5.595-1.274-1,.443-4.146,1.551-5.395.443-1.249-1.052-.649-3.213.7-2.77-.05.332-.25.665.1.942.4.277.949-.111.8-.72A1.366,1.366,0,0,0,628.614,12.048Zm64.339,4.93c-.05.5.2.609.35.609s.35-.055.5-.443a29.532,29.532,0,0,1,2.9-6.537,41.989,41.989,0,0,1,3.547-4.875c.5-.554,1.4-1.606.549-2.548-.7-.831-1.848,0-2.4.831a34.273,34.273,0,0,0-3.5,6.149A22.764,22.764,0,0,0,692.953,16.978Zm-2.547.886a.565.565,0,0,0,.2-.609c-.7-1.717-.7-6.149-.35-6.7.05-.554.35-2.1-.8-2.493-.949-.332-1.6,1.274-1.648,2.16a13.607,13.607,0,0,0,2.048,7.534C690.056,18.086,690.256,17.975,690.406,17.864Zm3.8.111c.1.111.35.166.7-.111,1.848-1.606,9.641-8.974,10.59-10.248.6-.665,1.4-1.773.55-2.714-.749-.776-1.8.055-2.4.886-1.648,1.828-8.092,9.528-9.391,11.467C693.952,17.643,694.1,17.864,694.2,17.975Zm-2.548-.332c.15-.055.35-.222.35-.665a19.281,19.281,0,0,1,1.1-6.426,22.5,22.5,0,0,1,2.4-4.819c.45-.665,1.1-1.773.15-2.548-.8-.72-1.748.222-2.248,1.163a23.883,23.883,0,0,0-2.148,6.26,16.687,16.687,0,0,0-.05,6.537C691.255,17.7,691.5,17.643,691.654,17.643Zm9.291-2.271a23.485,23.485,0,0,1-5.894,3.213c-.35.166-.45.388-.4.554,0,.166.1.388.549.388a17.317,17.317,0,0,0,6.144-2.16,33.125,33.125,0,0,0,5.545-3.878c.7-.609,1.449-1.883.749-2.659-.849-.886-1.8.055-2.3.609A35.059,35.059,0,0,1,700.945,15.371Zm-6.544,6.98a.5.5,0,0,0,.1.609,10.691,10.691,0,0,0,6.744,2.271c.749,0,2.248-.72,1.948-1.828-.35-1.274-1.748-.942-2.248-.886-.549.388-4.546.388-6.044-.388A.426.426,0,0,0,694.4,22.351Zm6.544-.886a19.05,19.05,0,0,0,5.645-2.382c.849-.554,1.7-1.606,1.049-2.493-.749-1-1.7-.277-2.3.166A20.107,20.107,0,0,1,701,19.415a15.507,15.507,0,0,1-5.795,1.219c-.4,0-.549.166-.6.388-.05.166-.05.388.45.554A13.252,13.252,0,0,0,700.945,21.465Z" transform="translate(-309.666 0)" fill="#ff0096"/>
    <path id="パス_10" data-name="パス 10" d="M12.738,89.156c.3.055.6.277.849-.111a.589.589,0,0,0-.649-.886c-.849.166-1.249,1.5-.6,2.6a1.992,1.992,0,0,0,3.647-.554c.949-2.825-1.149-6.2-1.149-6.2.4,1.108,1.4,4.6.4,5.983C14.287,91.372,12.339,90.707,12.738,89.156ZM4.6,75.419c.8-2.659,5.795-1.551,8.991-3.878,2.5-1.828,5.045-6.869,5.245-8.2,0,0-.45.554-1.149,1.385a33.205,33.205,0,0,1-4.246-.665c-3-.609-5.395,1.773-5.395,1.773s.7-.72,2.947.111a6.5,6.5,0,0,0,6.194-.609c-.35.388-.8.776-1.2,1.163-2.348,2.1-4.945,1.163-7.992,3.324A8.3,8.3,0,0,0,4.6,75.419ZM24.327,47.832c.4-1.108-.4-2.382-1-1.717s-.949,2.271-2.947-.166-5.445-8.032-4-12.408c.949-2.327,2.548-3.767,3.547-2.825.3.277-.3.776-.4.665-.25-.166.2.609.6.222A1.03,1.03,0,0,0,19.782,30c-.7-.277-2.9.277-3.946,3.767-.949,3.268,1,7.977,2.7,10.857C20.131,47.278,23.278,50.768,24.327,47.832ZM6.844,34.87c-4.146-.111-3.647,7.035.7,6.7,4.9-.388,4.8-7.2,6.494-10.359a8.38,8.38,0,0,1,7.243-4.487s-.649-.776-4.4.388a6.375,6.375,0,0,0-2.148,1.163,24.894,24.894,0,0,0-3.1,2.659,2.1,2.1,0,0,1-1.049.332s-.1.332.7.5a2.264,2.264,0,0,0,.849-.055c-.35.665-.6,1.274-.9,1.939a2.1,2.1,0,0,1-1.648,1.108,2.371,2.371,0,0,1-1.149-.554,1.9,1.9,0,0,0,.849,1.773,1.493,1.493,0,0,0,.849.332c-1.1,2.216-2.6,2.77-3.6,1.329A2.154,2.154,0,0,1,6.844,34.87ZM7.993,81.457A3.547,3.547,0,0,0,8.792,85a3.232,3.232,0,0,0,1.2.72,2.769,2.769,0,0,0,2.6-.5,4.2,4.2,0,0,0,1.3-3.324,25.541,25.541,0,0,0-.549-3.6c-.35-2.327.849-4.542,1.648-6.038a23.2,23.2,0,0,0,1.349-2.548s-.649.942-1.549,2.382-2.3,3.6-2.1,6.26a18.229,18.229,0,0,1,.35,3.545,3.168,3.168,0,0,1-1.049,2.437,1.873,1.873,0,0,1-2.4-.277,2.732,2.732,0,0,1-.749-2.216c.1-1,.9-1.551.849-1.717C9.691,79.795,8.492,80.016,7.993,81.457ZM19.782,69.99c1.9,3.1,2.4,5.706,2.2,6.37a7.772,7.772,0,0,0,.849-4.708c-.5-2.271-1.948-4.044-2.148-7.09a17.333,17.333,0,0,0-.35-2.88C19.932,62.179,17.634,66.5,19.782,69.99ZM14.187,37.917a11.079,11.079,0,0,1,.8-6.924,7.328,7.328,0,0,1,1.9-2.437,5.2,5.2,0,0,0-2.048,2.327,11.169,11.169,0,0,0-1.1,7.146c.45,2.659,1.4,5.262,1.848,7.257a2.772,2.772,0,0,1-.25,2.216c-.3.443-.549.388-.6.388a.6.6,0,0,1-.35-.886c.2-.443.35-.332.5-.277.05,0,.1-.222-.1-.443a.753.753,0,0,0-.9.277,1.446,1.446,0,0,0-.3,1.329,1.468,1.468,0,0,0,1,.942,1.37,1.37,0,0,0,1.4-.831,3.836,3.836,0,0,0,.25-2.936C15.736,42.958,14.736,40.52,14.187,37.917ZM8.243,90.652a4.821,4.821,0,0,0,.2,4.21,4.884,4.884,0,0,0,6.844,1.551,7.491,7.491,0,0,0,2.7-6.149,17.089,17.089,0,0,0-1.948-7.035,12.232,12.232,0,0,1-1.549-6.536c.15-2.16,1.249-3.933,2-5.539a25.264,25.264,0,0,0,2.048-5.484,35.2,35.2,0,0,1-2.348,5.318c-.749,1.5-2,3.268-2.248,5.65a12.962,12.962,0,0,0,1.349,7.035,15.04,15.04,0,0,1,1.6,6.592,6.1,6.1,0,0,1-2.3,4.93,3.379,3.379,0,0,1-3.547,0,2.231,2.231,0,0,1-1-.886c-.3-.831,0-2.327,1-2.6a1.143,1.143,0,0,0-1.7.388,3.628,3.628,0,0,1,.05-1.052c.1-.942.5-1.717.35-1.883C9.491,89.046,8.742,89.489,8.243,90.652Zm9.391-7.035c1.2,1.052,3.347,1.551,4.446,0,1.1-1.606-.35-4.709-2.647-3.213a1.853,1.853,0,0,1,1.7,2.16,1.422,1.422,0,0,0-1.449-.554c.7.388,1.049,1.219.4,1.5-.649.222-2.548-.72-3.4-2.659-.949-2.1-.849-3.268-.6-5.484a52.868,52.868,0,0,1,2.148-7.7c-.1-.111-3.1,6.315-2.947,9.694C15.336,80.736,16.435,82.564,17.634,83.617Zm7.393-51.295a3.438,3.438,0,0,0,.549-2.382,3.174,3.174,0,0,0-1.549-2.16,5.085,5.085,0,0,0-5.245-.111,9.837,9.837,0,0,0-3.746,4.487,9.511,9.511,0,0,0-.549,5.706,52.093,52.093,0,0,0,2.348,6.869c-.35-.886-.649-1.44-.649-1.5a39.121,39.121,0,0,1,1.3,4.155,7.219,7.219,0,0,1-.3,3.878,2.063,2.063,0,0,1-1,1.108,1,1,0,0,1-1.1-.277.943.943,0,0,1-.15-1.219.506.506,0,0,1,.4-.277c.15,0,.35.111.4.055s0-.332-.3-.5a.761.761,0,0,0-1,.388,1.261,1.261,0,0,0-.2.72,1.551,1.551,0,0,0,.549,1.274,1.416,1.416,0,0,0,1.549.277,2.419,2.419,0,0,0,1.1-1.385,8.93,8.93,0,0,0,.35-1.883,9.527,9.527,0,0,1-.1,2.382,8.8,8.8,0,0,1-2.9,5.207c-1.4,1.052-2.348.277-2.3.111a.811.811,0,0,1,.05-.886c.25-.166.45.055.549.111.15.111.15-.831-.7-.776-.8.111-1.1,1.44-.549,2.05a1.63,1.63,0,0,0,1.1.72,2.773,2.773,0,0,0,2.2-.72,9.353,9.353,0,0,0,2.947-5.706,14.61,14.61,0,0,0-.6-5.539,15.116,15.116,0,0,1,1,5.318c0,3.157-1.948,7.644-5.495,8.088a4.394,4.394,0,0,1-4.046-2.216,2.805,2.805,0,0,1,.25-3.711c.949-1.052,1.3-.776,1.9-.277.649.554,1.2-.277,1.249-.332.05,0,.3-.942-.8-1.385-.549-.554-2.148-.388-3,.5A4.493,4.493,0,0,0,7.393,56.64a5.35,5.35,0,0,0,3.2,3.878,5.229,5.229,0,0,0,5.2-.72,8.868,8.868,0,0,0,2.9-3.988c0,1.5.25,3.434,1.449,4.6a2.446,2.446,0,0,0,4.246-1.5c0-1.44-1-1.606-1-1.606s.35,1.5-.2,1.994a1.618,1.618,0,0,0-.649-.942s.15,1.385-.8,1.5-2.1-1.606-2.348-3.379a15.648,15.648,0,0,1-.1-2.216c.849-3.379-.2-6.7-.949-8.752-.749-2.382-2.448-5.484-2.9-8.974a8.475,8.475,0,0,1,4.945-8.365,4.206,4.206,0,0,1,4.046.942,2.448,2.448,0,0,1,0,3.213c-.749.831-1.5-.111-1.2-.609.25-.5.649-.111.7-.111a.345.345,0,0,0-.2-.277c-.15-.166-.749-.055-.849.443a1.183,1.183,0,0,0,.549,1.44A1.855,1.855,0,0,0,25.027,32.322ZM40.362,6.73c.3-4.819-6.144-5.373-6.044-.776a1.646,1.646,0,0,1,2.448-.277c1.3,1.052.8,2.77-1.2,3.988a1.894,1.894,0,0,0-.3-.942c-.749-1.163-1.6-.942-1.6-.942a2.885,2.885,0,0,1,.5,1.274,2.4,2.4,0,0,1-1,1.828,18.876,18.876,0,0,0-1.748,1,3.072,3.072,0,0,0,.05-.942c-.15-.886-.45-.776-.45-.776a2.087,2.087,0,0,1-.3,1.163,26.818,26.818,0,0,0-2.4,3.434,6.865,6.865,0,0,0-1.049,2.327c-1.049,4.155-.35,4.875-.35,4.875a9.654,9.654,0,0,1,4.046-8.032C33.868,12.048,39.963,12.159,40.362,6.73ZM46.906,14.6a1.428,1.428,0,0,0-.849-1.108,1.133,1.133,0,0,0-1.2.332.953.953,0,0,0-.25,1c.2.277.35.166.4.111-.05-.166-.15-.332.25-.554s.649.055.8.388c0,.055.1.277-.35.665a2.344,2.344,0,0,1-2.048.277c-1.8-.5-4.146-1.551-6.544-2.05a8.506,8.506,0,0,0-6.444,1.219,5.65,5.65,0,0,0-2.1,2.271,5.937,5.937,0,0,1,2.2-2.1,8.358,8.358,0,0,1,6.244-.886c2.348.609,4.546,1.717,6.444,2.327a2.906,2.906,0,0,0,2.647-.277A1.822,1.822,0,0,0,46.906,14.6ZM70.883,3.462a7.724,7.724,0,0,0-5.145,3.767c-1.948,3.324-1.1,6.26-3,8.863a13.921,13.921,0,0,1-1.049,1.329,8.411,8.411,0,0,0,.549-6.869c-.749-2.493-.1-3.268-.1-3.268a8.273,8.273,0,0,0-1.6,5.983,44.758,44.758,0,0,1,.6,4.708c-.7.776-1.249,1.274-1.249,1.274,1.2-.222,5.795-3.1,7.393-5.816C69.485,9.832,68.486,4.348,70.883,3.462ZM53.2,19.027a8.312,8.312,0,0,0,3.6-3.213,7.073,7.073,0,0,0,.649-5.761,5.083,5.083,0,0,0-3.5-3.545A3.4,3.4,0,0,0,50.2,7.782c-.8.942-.949,2.714-.45,3.324.4,1.274,1.249.942,1.249.886.05-.055.8-.665.3-1.385-.45-.665-.7-1.052.25-2.1A2.278,2.278,0,0,1,54.9,8.226a4.912,4.912,0,0,1,2,4.487c-.4,3.933-4.4,6.093-7.293,6.093a12.354,12.354,0,0,1-4.8-1.108,10.866,10.866,0,0,0,5,.665,8.076,8.076,0,0,0,5.145-3.268,3.559,3.559,0,0,0,.649-2.437,2.034,2.034,0,0,0-.649-1.274,1.12,1.12,0,0,0-1.848.609c-.1.942.8.942.7.776-.05-.111-.25-.332-.1-.609a.554.554,0,0,1,.8-.055c.15,0,.849,1-.1,2.548a7.616,7.616,0,0,1-4.646,3.213,9.464,9.464,0,0,1-2.148.111,3.947,3.947,0,0,0,1.7-.388,2.327,2.327,0,0,0,1.249-1.219,1.718,1.718,0,0,0-.25-1.717,1.29,1.29,0,0,0-1.149-.609,1.14,1.14,0,0,0-.649.222.929.929,0,0,0-.35,1.108c.15.332.4.388.45.332s-.05-.277-.05-.443.1-.277.25-.443a.737.737,0,0,1,1.1.166,1.291,1.291,0,0,1,.25,1.219,2.281,2.281,0,0,1-1,1.108,5.344,5.344,0,0,1-3.5.332,27.243,27.243,0,0,1-3.746-1.44c.05,0,.549.332,1.349.72a41.425,41.425,0,0,0-6.194-2.6,7.336,7.336,0,0,0-5.145.609,9.919,9.919,0,0,0-4.046,4.155,6.6,6.6,0,0,0,.1,5.816,3.085,3.085,0,0,0,1.948,1.717,2.48,2.48,0,0,0,2.148-.609,1.833,1.833,0,0,0,.7-1.939.992.992,0,0,0-1.3-.665.682.682,0,0,0-.35.942c.1.222.25.277.25.222.05,0-.3-.5.1-.776.5-.332,1.3.5.549,1.329a1.836,1.836,0,0,1-2.9,0,5.653,5.653,0,0,1-.849-4.487c.949-3.213,4.4-5.927,7.543-5.484,3.147.5,5.944,2.382,8.092,3.213,1.9.831,4.845,1.994,7.893,1.052a11.5,11.5,0,0,1,2,.111c1.6.277,3.147,1.551,3.047,2.6s-1.349.886-1.349.886a1.455,1.455,0,0,0,.849.72c-.4.609-1.8.222-1.8.222A1.356,1.356,0,0,0,56,25.065c1.3,0,3.1-2.382,1.349-4.708A5.493,5.493,0,0,0,53.2,19.027ZM33.169,16.535c3.946-1.606,8.991,2.271,11.189,4.432,2.2,2.216.749,2.6.15,3.268s.549,1.551,1.549,1.108c2.6-1.163-.5-4.708-2.847-6.426-2.6-1.939-6.844-4.1-9.791-2.991-3.147,1.163-3.647,3.6-3.4,4.376a.845.845,0,0,0,1.449.388c.35-.5-.35-.942-.2-.665.1.166-.4.776-.6.443C29.772,19.3,31.071,17.587,33.169,16.535Zm45.007,4.044c-.25.72-1,.332-1.349-.443a1.825,1.825,0,0,0,.5,1.606c-1.149.222-1.848-.831-1.948-1.883-1.349,2.6,1.449,4.21,2.9,2.936,1.449-1.219,1-3.6,0-4.93-.949-1.329-2.6-2.548-5.645-2.659s-8.842,3.213-8.742,3.268c0,0,4.9-2.1,6.993-2.382,2-.277,3-.388,4.945.665C77.527,17.809,78.426,19.858,78.176,20.579Zm1.5-8.254a3.451,3.451,0,0,0,.45-2.88,3.778,3.778,0,0,0-.649-1.329,2.7,2.7,0,0,0-3.2-.886c-1.3.554-1.5,1.883-1.349,1.883.15.055.7-.831,1.6-.942a2.162,2.162,0,0,1,2,.831,2.206,2.206,0,0,1,.25,2.659,2.658,2.658,0,0,1-2.2,1.163,13.786,13.786,0,0,1-3.2-.388c-2.4-.222-4.346,1.329-5.645,2.327-1.3,1.052-2.148,1.773-2.148,1.717a15.81,15.81,0,0,0,2.3-1.5c1.349-.942,3.3-2.216,5.445-1.828a12.557,12.557,0,0,0,3.3.609A3.36,3.36,0,0,0,79.675,12.325ZM58.5,20.911a12.9,12.9,0,0,0,2.6.388c2.747.222,4.346,1.828,6.394,2.382s4.246-.942,4.246-.942c-.6.222-2.947-.332-5.745-2.437C62.891,17.92,58.945,20.468,58.5,20.911ZM88.417,7.672a3.631,3.631,0,0,0-3.8-.222C83.571,8,83.172,8.89,83.272,9.057c.2.166.849-.222,1.7-.388a5.458,5.458,0,0,1,.949-.055,1.446,1.446,0,0,0-.35,1.883,1.733,1.733,0,0,1,2.348-1.108,3.167,3.167,0,0,1,.8,1.108,4.666,4.666,0,0,1,0,3.933,5.2,5.2,0,0,1-4.446,2.548,12.11,12.11,0,0,1-5.944-1.773,9.778,9.778,0,0,0-6.344-1.5c-2.1.332-3.7,1.662-5.1,2.493a45.4,45.4,0,0,1-4.8,2.6,22.21,22.21,0,0,0,4.945-2.271c1.449-.776,3-1.994,5-2.216a9.588,9.588,0,0,1,5.894,1.717,12.722,12.722,0,0,0,6.344,2.16,6.3,6.3,0,0,0,5.545-2.991C91.913,10.94,88.866,7.782,88.417,7.672Zm-6.044,5.041c-.1.609.45,1,.8.72.4-.277.15-.554.1-.942,1.4-.443,2,1.662.7,2.77-1.249,1.052-4.4,0-5.395-.443,0,0,3.047,2.327,5.595,1.274,2-.831,1.449-3.268.5-4.044A1.366,1.366,0,0,0,82.372,12.713ZM18.383,10.164a37.712,37.712,0,0,0-3.5-6.149c-.549-.776-1.7-1.606-2.4-.831-.8.942.05,1.994.549,2.548a32.829,32.829,0,0,1,3.547,4.875,28.455,28.455,0,0,1,2.9,6.537c.15.388.35.5.5.443.15,0,.35-.111.35-.609A22.76,22.76,0,0,0,18.383,10.164Zm5.1,7.589a13.764,13.764,0,0,0,2.048-7.534c0-.831-.649-2.493-1.648-2.16-1.149.388-.849,1.939-.8,2.493.35.609.35,5.041-.35,6.7a.5.5,0,0,0,.2.609C23.029,17.975,23.228,18.086,23.478,17.753ZM19.032,17.2C17.684,15.261,11.29,7.506,9.641,5.733c-.6-.776-1.648-1.662-2.4-.886-.849.886,0,2.05.549,2.714.9,1.329,8.742,8.641,10.59,10.248.35.277.6.277.7.111C19.182,17.864,19.332,17.643,19.032,17.2Zm3.1-.055a16.691,16.691,0,0,0-.05-6.537,23.888,23.888,0,0,0-2.148-6.26c-.5-.942-1.449-1.883-2.248-1.163-.9.831-.25,1.883.15,2.548a23.549,23.549,0,0,1,2.4,4.819,20.675,20.675,0,0,1,1.1,6.426c0,.443.15.609.35.665C21.78,17.643,22.03,17.7,22.129,17.144ZM7.943,11.383c-.5-.554-1.449-1.551-2.3-.609-.749.776.05,2.05.749,2.659a30.13,30.13,0,0,0,5.545,3.878,17.642,17.642,0,0,0,6.144,2.16c.45.055.549-.222.549-.388a.579.579,0,0,0-.4-.554,24.369,24.369,0,0,1-5.894-3.213A27.7,27.7,0,0,1,7.943,11.383ZM18.333,22.13c-1.549.776-5.545.776-6.044.388-.5-.055-1.9-.388-2.248.886-.3,1.052,1.149,1.773,1.948,1.828a10.608,10.608,0,0,0,6.794-2.271.462.462,0,0,0,.15-.609A.57.57,0,0,0,18.333,22.13Zm-.1-.609c.45-.166.45-.388.45-.554a.559.559,0,0,0-.6-.388,14.461,14.461,0,0,1-5.795-1.219A18.035,18.035,0,0,1,7.943,16.7c-.6-.5-1.549-1.219-2.3-.166-.649.886.2,1.939,1.049,2.493a19.049,19.049,0,0,0,5.645,2.382A11.784,11.784,0,0,0,18.233,21.52Z" transform="translate(0 0)" fill="#ff0096"/>
  </g>
</svg>
